<svg width="365" height="305" viewBox="0 0 365 305" fill="none" xmlns="http://www.w3.org/2000/svg">
<g clip-path="url(#clip0_128_4486)">
<path d="M17.9699 22.6257C17.3392 16.8875 23.3499 12.2782 31.4005 12.3483C39.4511 12.4106 46.4896 17.1133 47.1202 22.8437C47.7509 28.5897 41.7402 33.1834 33.6896 33.1211C25.639 33.0666 18.6005 28.3639 17.9699 22.6257ZM48.6229 24.4087C47.8988 17.2924 39.7937 11.4607 30.5285 11.3829C21.2555 11.305 14.3416 17.0121 15.0657 24.1284C15.7898 31.2447 23.8949 37.0763 33.1601 37.1542C42.4253 37.2242 49.3548 31.525 48.6229 24.4087Z" fill="#FBB584"/>
<path d="M34.6318 37.2945C30.0692 42.0672 22.7427 42.4643 18.2658 38.1821C13.7967 33.8998 13.8668 26.5655 18.4371 21.8006C22.9997 17.0356 30.334 16.6385 34.7953 20.913C39.2644 25.1952 39.1943 32.5295 34.624 37.2945M17.7286 21.6448C12.4264 27.1884 12.3408 35.7139 17.534 40.6891C22.7272 45.6643 31.2449 45.2049 36.5471 39.6614C41.8571 34.1178 41.9427 25.5923 36.7418 20.6171C31.5486 15.6419 23.0308 16.1013 17.7208 21.6448" fill="#F89B6C"/>
<path d="M18.2116 3.79902C27.7026 0.240867 37.0924 3.83795 39.179 11.8341C41.2656 19.8302 35.2627 29.2044 25.7717 32.7547C16.2807 36.3129 6.89094 32.7158 4.80432 24.7197C2.70992 16.7236 8.72063 7.35717 18.2116 3.79902ZM9.398 6.85109C-0.45115 14.6525 -2.95821 25.9499 3.79216 32.0852C10.5503 38.2282 24.0043 36.8813 33.8613 29.0798C43.7104 21.2861 46.2175 9.9888 39.4593 3.84573C32.7012 -2.28955 19.2394 -0.942587 9.398 6.85109Z" fill="#F37321"/>
<path d="M71.2954 13.228V30.8786H68.5314V21.5667H58.0672V30.8786H55.3032V13.228H58.0672V19.1531H68.5314V13.228H71.2954Z" fill="black"/>
<path d="M77.9289 30.8787C76.6365 30.8787 75.6165 30.5206 74.8613 29.7965C74.0905 29.0724 73.709 28.1459 73.709 27.0091V26.067C73.709 24.9147 74.0905 23.9804 74.8613 23.2563C75.6165 22.5167 76.6365 22.1507 77.9289 22.1507H85.1387V22.0807C85.1387 20.6636 84.3601 19.9629 82.8107 19.9629H74.7912V17.6116H82.764C84.4224 17.6116 85.6915 18.032 86.5635 18.8807C87.4511 19.6982 87.9027 20.8816 87.9027 22.431V27.1104C87.9027 28.3094 87.4978 29.2515 86.6803 29.9444C85.9406 30.5751 84.9051 30.8865 83.5659 30.8865H77.9212L77.9289 30.8787ZM82.982 24.4943H78.6063C77.1893 24.4943 76.4885 25.0938 76.4885 26.2928V26.7288C76.4885 27.9123 77.1971 28.504 78.6063 28.504H82.982C84.4224 28.504 85.1465 27.9123 85.1465 26.7288V26.2928C85.1465 25.0938 84.4224 24.4943 82.982 24.4943Z" fill="black"/>
<path d="M96.0002 17.6038H98.7175C100.438 17.6038 101.793 18.1021 102.774 19.0987C103.755 20.0952 104.245 21.4889 104.245 23.2719V30.8787H101.481V23.412C101.481 22.3064 101.263 21.4967 100.835 20.9906C100.298 20.3288 99.5194 20.0018 98.5073 20.0018H96.1559C95.1749 20.0018 94.4041 20.3288 93.8513 20.9906C93.4542 21.4967 93.2518 22.3064 93.2518 23.412V30.8787H90.4878V23.2719C90.4878 21.4889 90.9783 20.103 91.9593 19.0987C92.9403 18.1021 94.2873 17.6038 95.9924 17.6038H96.0002Z" fill="black"/>
<path d="M116.991 29.1035C116.01 30.287 114.788 30.8787 113.324 30.8787H111.619C110.085 30.8787 108.863 30.396 107.952 29.4306C107.087 28.5274 106.659 27.2427 106.659 25.5843V17.6116H109.4V25.6077C109.4 26.5731 109.61 27.2816 110.023 27.7254C110.498 28.2315 111.12 28.4885 111.891 28.4885H113.09C113.877 28.4885 114.507 28.2315 114.982 27.7254C115.411 27.2816 115.629 26.5731 115.629 25.6077V17.6116H118.346V25.6077C118.346 26.5731 118.556 27.2816 118.969 27.7254C119.444 28.2315 120.066 28.4885 120.837 28.4885H122.036C122.823 28.4885 123.453 28.2315 123.928 27.7254C124.356 27.2816 124.575 26.5731 124.575 25.6077V17.6116H127.315V25.5843C127.315 27.2427 126.871 28.5274 125.976 29.4306C125.073 30.396 123.843 30.8787 122.285 30.8787H120.604C119.171 30.8787 117.972 30.287 116.983 29.1035H116.991Z" fill="black"/>
<path d="M135.436 20.0018C134.455 20.0018 133.684 20.3288 133.131 20.9906C132.734 21.4967 132.532 22.3065 132.532 23.4121V30.8787H129.768V13.1814H132.532V18.4135C133.334 17.8763 134.244 17.6038 135.272 17.6038H137.989C139.71 17.6038 141.065 18.1021 142.046 19.0987C143.027 20.0953 143.517 21.4889 143.517 23.2719V30.8787H140.753V23.4121C140.753 22.3065 140.535 21.4967 140.107 20.9906C139.57 20.3288 138.791 20.0018 137.779 20.0018H135.428H135.436Z" fill="black"/>
<path d="M150.019 30.8787C148.726 30.8787 147.706 30.5206 146.951 29.7965C146.18 29.0724 145.799 28.1459 145.799 27.0091V26.067C145.799 24.9147 146.18 23.9804 146.951 23.2563C147.706 22.5167 148.726 22.1507 150.019 22.1507H157.229V22.0807C157.229 20.6636 156.45 19.9629 154.901 19.9629H146.881V17.6116H154.854C156.512 17.6116 157.781 18.032 158.653 18.8807C159.541 19.6982 159.993 20.8816 159.993 22.431V27.1104C159.993 28.3094 159.588 29.2515 158.77 29.9444C158.03 30.5751 156.995 30.8865 155.656 30.8865H150.011L150.019 30.8787ZM155.064 24.4943H150.688C149.271 24.4943 148.571 25.0938 148.571 26.2928V26.7288C148.571 27.9123 149.279 28.504 150.688 28.504H155.064C156.504 28.504 157.229 27.9123 157.229 26.7288V26.2928C157.229 25.0938 156.504 24.4943 155.064 24.4943Z" fill="black"/>
</g>
<path d="M13.14 165.453C11.07 165.453 9.24 165.093 7.65 164.373C6.09 163.653 4.86 162.648 3.96 161.358C3.06 160.068 2.58 158.628 2.52 157.038H5.85C6 158.568 6.675 159.918 7.875 161.088C9.075 162.228 10.83 162.798 13.14 162.798C15.27 162.798 16.95 162.258 18.18 161.178C19.44 160.068 20.07 158.673 20.07 156.993C20.07 155.643 19.725 154.563 19.035 153.753C18.345 152.913 17.49 152.298 16.47 151.908C15.45 151.488 14.04 151.038 12.24 150.558C10.14 149.988 8.475 149.433 7.245 148.893C6.015 148.353 4.965 147.513 4.095 146.373C3.225 145.233 2.79 143.688 2.79 141.738C2.79 140.118 3.21 138.678 4.05 137.418C4.89 136.128 6.075 135.123 7.605 134.403C9.135 133.683 10.89 133.323 12.87 133.323C15.78 133.323 18.12 134.043 19.89 135.483C21.69 136.893 22.725 138.723 22.995 140.973H19.575C19.365 139.683 18.66 138.543 17.46 137.553C16.26 136.533 14.64 136.023 12.6 136.023C10.71 136.023 9.135 136.533 7.875 137.553C6.615 138.543 5.985 139.908 5.985 141.648C5.985 142.968 6.33 144.033 7.02 144.843C7.71 145.653 8.565 146.268 9.585 146.688C10.635 147.108 12.045 147.558 13.815 148.038C15.855 148.608 17.505 149.178 18.765 149.748C20.025 150.288 21.09 151.128 21.96 152.268C22.83 153.408 23.265 154.938 23.265 156.858C23.265 158.328 22.875 159.723 22.095 161.043C21.315 162.363 20.16 163.428 18.63 164.238C17.1 165.048 15.27 165.453 13.14 165.453ZM50.637 140.568V165.138H47.487V160.818C46.767 162.348 45.657 163.518 44.157 164.328C42.657 165.138 40.977 165.543 39.117 165.543C36.177 165.543 33.777 164.643 31.917 162.843C30.057 161.013 29.127 158.373 29.127 154.923V140.568H32.232V154.563C32.232 157.233 32.892 159.273 34.212 160.683C35.562 162.093 37.392 162.798 39.702 162.798C42.072 162.798 43.962 162.048 45.372 160.548C46.782 159.048 47.487 156.843 47.487 153.933V140.568H50.637ZM66.2885 165.498C63.4685 165.498 61.1585 164.853 59.3585 163.563C57.5885 162.243 56.5985 160.458 56.3885 158.208H59.6285C59.7785 159.588 60.4235 160.713 61.5635 161.583C62.7335 162.423 64.2935 162.843 66.2435 162.843C67.9535 162.843 69.2885 162.438 70.2485 161.628C71.2385 160.818 71.7335 159.813 71.7335 158.613C71.7335 157.773 71.4635 157.083 70.9235 156.543C70.3835 156.003 69.6935 155.583 68.8535 155.283C68.0435 154.953 66.9335 154.608 65.5235 154.248C63.6935 153.768 62.2085 153.288 61.0685 152.808C59.9285 152.328 58.9535 151.623 58.1435 150.693C57.3635 149.733 56.9735 148.458 56.9735 146.868C56.9735 145.668 57.3335 144.558 58.0535 143.538C58.7735 142.518 59.7935 141.708 61.1135 141.108C62.4335 140.508 63.9335 140.208 65.6135 140.208C68.2535 140.208 70.3835 140.883 72.0035 142.233C73.6235 143.553 74.4935 145.383 74.6135 147.723H71.4635C71.3735 146.283 70.8035 145.128 69.7535 144.258C68.7335 143.358 67.3235 142.908 65.5235 142.908C63.9335 142.908 62.6435 143.283 61.6535 144.033C60.6635 144.783 60.1685 145.713 60.1685 146.823C60.1685 147.783 60.4535 148.578 61.0235 149.208C61.6235 149.808 62.3585 150.288 63.2285 150.648C64.0985 150.978 65.2685 151.353 66.7385 151.773C68.5085 152.253 69.9185 152.718 70.9685 153.168C72.0185 153.618 72.9185 154.278 73.6685 155.148C74.4185 156.018 74.8085 157.173 74.8385 158.613C74.8385 159.933 74.4785 161.118 73.7585 162.168C73.0385 163.188 72.0335 163.998 70.7435 164.598C69.4535 165.198 67.9685 165.498 66.2885 165.498ZM84.863 143.223V158.478C84.863 159.978 85.148 161.013 85.718 161.583C86.288 162.153 87.293 162.438 88.733 162.438H91.613V165.138H88.238C86.018 165.138 84.368 164.628 83.288 163.608C82.208 162.558 81.668 160.848 81.668 158.478V143.223H78.248V140.568H81.668V134.403H84.863V140.568H91.613V143.223H84.863ZM95.368 152.808C95.368 150.288 95.863 148.083 96.853 146.193C97.873 144.273 99.268 142.803 101.038 141.783C102.838 140.733 104.863 140.208 107.113 140.208C109.453 140.208 111.463 140.748 113.143 141.828C114.853 142.908 116.083 144.288 116.833 145.968V140.568H119.983V165.138H116.833V159.693C116.053 161.373 114.808 162.768 113.098 163.878C111.418 164.958 109.408 165.498 107.068 165.498C104.848 165.498 102.838 164.973 101.038 163.923C99.268 162.873 97.873 161.388 96.853 159.468C95.863 157.548 95.368 155.328 95.368 152.808ZM116.833 152.853C116.833 150.873 116.428 149.133 115.618 147.633C114.808 146.133 113.698 144.978 112.288 144.168C110.908 143.358 109.378 142.953 107.698 142.953C105.958 142.953 104.398 143.343 103.018 144.123C101.638 144.903 100.543 146.043 99.733 147.543C98.953 149.013 98.563 150.768 98.563 152.808C98.563 154.818 98.953 156.588 99.733 158.118C100.543 159.618 101.638 160.773 103.018 161.583C104.398 162.363 105.958 162.753 107.698 162.753C109.378 162.753 110.908 162.348 112.288 161.538C113.698 160.728 114.808 159.573 115.618 158.073C116.428 156.573 116.833 154.833 116.833 152.853ZM128.749 135.933C128.119 135.933 127.579 135.708 127.129 135.258C126.679 134.808 126.454 134.253 126.454 133.593C126.454 132.933 126.679 132.393 127.129 131.973C127.579 131.523 128.119 131.298 128.749 131.298C129.379 131.298 129.919 131.523 130.369 131.973C130.819 132.393 131.044 132.933 131.044 133.593C131.044 134.253 130.819 134.808 130.369 135.258C129.919 135.708 129.379 135.933 128.749 135.933ZM130.324 140.568V165.138H127.174V140.568H130.324ZM148.977 140.118C151.917 140.118 154.317 141.033 156.177 142.863C158.037 144.663 158.967 147.288 158.967 150.738V165.138H155.862V151.098C155.862 148.428 155.187 146.388 153.837 144.978C152.517 143.568 150.702 142.863 148.392 142.863C146.022 142.863 144.132 143.613 142.722 145.113C141.312 146.613 140.607 148.818 140.607 151.728V165.138H137.457V140.568H140.607V144.753C141.387 143.253 142.512 142.113 143.982 141.333C145.452 140.523 147.117 140.118 148.977 140.118ZM164.494 152.808C164.494 150.288 164.989 148.083 165.979 146.193C166.999 144.273 168.394 142.803 170.164 141.783C171.964 140.733 173.989 140.208 176.239 140.208C178.579 140.208 180.589 140.748 182.269 141.828C183.979 142.908 185.209 144.288 185.959 145.968V140.568H189.109V165.138H185.959V159.693C185.179 161.373 183.934 162.768 182.224 163.878C180.544 164.958 178.534 165.498 176.194 165.498C173.974 165.498 171.964 164.973 170.164 163.923C168.394 162.873 166.999 161.388 165.979 159.468C164.989 157.548 164.494 155.328 164.494 152.808ZM185.959 152.853C185.959 150.873 185.554 149.133 184.744 147.633C183.934 146.133 182.824 144.978 181.414 144.168C180.034 143.358 178.504 142.953 176.824 142.953C175.084 142.953 173.524 143.343 172.144 144.123C170.764 144.903 169.669 146.043 168.859 147.543C168.079 149.013 167.689 150.768 167.689 152.808C167.689 154.818 168.079 156.588 168.859 158.118C169.669 159.618 170.764 160.773 172.144 161.583C173.524 162.363 175.084 162.753 176.824 162.753C178.504 162.753 180.034 162.348 181.414 161.538C182.824 160.728 183.934 159.573 184.744 158.073C185.554 156.573 185.959 154.833 185.959 152.853ZM199.405 146.013C200.215 144.303 201.46 142.908 203.14 141.828C204.85 140.748 206.86 140.208 209.17 140.208C211.42 140.208 213.43 140.733 215.2 141.783C216.97 142.803 218.35 144.273 219.34 146.193C220.36 148.083 220.87 150.288 220.87 152.808C220.87 155.328 220.36 157.548 219.34 159.468C218.35 161.388 216.955 162.873 215.155 163.923C213.385 164.973 211.39 165.498 209.17 165.498C206.83 165.498 204.805 164.973 203.095 163.923C201.415 162.843 200.185 161.448 199.405 159.738V165.138H196.3V131.838H199.405V146.013ZM217.675 152.808C217.675 150.768 217.27 149.013 216.46 147.543C215.68 146.043 214.6 144.903 213.22 144.123C211.84 143.343 210.28 142.953 208.54 142.953C206.86 142.953 205.315 143.358 203.905 144.168C202.525 144.978 201.43 146.133 200.62 147.633C199.81 149.133 199.405 150.873 199.405 152.853C199.405 154.833 199.81 156.573 200.62 158.073C201.43 159.573 202.525 160.728 203.905 161.538C205.315 162.348 206.86 162.753 208.54 162.753C210.28 162.753 211.84 162.363 213.22 161.583C214.6 160.773 215.68 159.618 216.46 158.118C217.27 156.588 217.675 154.818 217.675 152.808ZM229.816 131.838V165.138H226.666V131.838H229.816ZM259.18 151.593C259.18 152.673 259.15 153.498 259.09 154.068H238.705C238.795 155.928 239.245 157.518 240.055 158.838C240.865 160.158 241.93 161.163 243.25 161.853C244.57 162.513 246.01 162.843 247.57 162.843C249.61 162.843 251.32 162.348 252.7 161.358C254.11 160.368 255.04 159.033 255.49 157.353H258.82C258.22 159.753 256.93 161.718 254.95 163.248C253 164.748 250.54 165.498 247.57 165.498C245.26 165.498 243.19 164.988 241.36 163.968C239.53 162.918 238.09 161.448 237.04 159.558C236.02 157.638 235.51 155.403 235.51 152.853C235.51 150.303 236.02 148.068 237.04 146.148C238.06 144.228 239.485 142.758 241.315 141.738C243.145 140.718 245.23 140.208 247.57 140.208C249.91 140.208 251.95 140.718 253.69 141.738C255.46 142.758 256.81 144.138 257.74 145.878C258.7 147.588 259.18 149.493 259.18 151.593ZM255.985 151.503C256.015 149.673 255.64 148.113 254.86 146.823C254.11 145.533 253.075 144.558 251.755 143.898C250.435 143.238 248.995 142.908 247.435 142.908C245.095 142.908 243.1 143.658 241.45 145.158C239.8 146.658 238.885 148.773 238.705 151.503H255.985ZM275.851 152.808C275.851 150.288 276.346 148.083 277.336 146.193C278.356 144.273 279.751 142.803 281.521 141.783C283.321 140.733 285.346 140.208 287.596 140.208C289.936 140.208 291.946 140.748 293.626 141.828C295.336 142.908 296.566 144.288 297.316 145.968V140.568H300.466V165.138H297.316V159.693C296.536 161.373 295.291 162.768 293.581 163.878C291.901 164.958 289.891 165.498 287.551 165.498C285.331 165.498 283.321 164.973 281.521 163.923C279.751 162.873 278.356 161.388 277.336 159.468C276.346 157.548 275.851 155.328 275.851 152.808ZM297.316 152.853C297.316 150.873 296.911 149.133 296.101 147.633C295.291 146.133 294.181 144.978 292.771 144.168C291.391 143.358 289.861 142.953 288.181 142.953C286.441 142.953 284.881 143.343 283.501 144.123C282.121 144.903 281.026 146.043 280.216 147.543C279.436 149.013 279.046 150.768 279.046 152.808C279.046 154.818 279.436 156.588 280.216 158.118C281.026 159.618 282.121 160.773 283.501 161.583C284.881 162.363 286.441 162.753 288.181 162.753C289.861 162.753 291.391 162.348 292.771 161.538C294.181 160.728 295.291 159.573 296.101 158.073C296.911 156.573 297.316 154.833 297.316 152.853ZM319.178 140.118C322.118 140.118 324.518 141.033 326.378 142.863C328.238 144.663 329.168 147.288 329.168 150.738V165.138H326.063V151.098C326.063 148.428 325.388 146.388 324.038 144.978C322.718 143.568 320.903 142.863 318.593 142.863C316.223 142.863 314.333 143.613 312.923 145.113C311.513 146.613 310.808 148.818 310.808 151.728V165.138H307.658V140.568H310.808V144.753C311.588 143.253 312.713 142.113 314.183 141.333C315.653 140.523 317.318 140.118 319.178 140.118ZM334.694 152.808C334.694 150.288 335.204 148.083 336.224 146.193C337.244 144.273 338.639 142.803 340.409 141.783C342.209 140.733 344.234 140.208 346.484 140.208C348.644 140.208 350.594 140.733 352.334 141.783C354.074 142.833 355.349 144.198 356.159 145.878V131.838H359.309V165.138H356.159V159.648C355.409 161.358 354.179 162.768 352.469 163.878C350.759 164.958 348.749 165.498 346.439 165.498C344.189 165.498 342.164 164.973 340.364 163.923C338.594 162.873 337.199 161.388 336.179 159.468C335.189 157.548 334.694 155.328 334.694 152.808ZM356.159 152.853C356.159 150.873 355.754 149.133 354.944 147.633C354.134 146.133 353.024 144.978 351.614 144.168C350.234 143.358 348.704 142.953 347.024 142.953C345.284 142.953 343.724 143.343 342.344 144.123C340.964 144.903 339.869 146.043 339.059 147.543C338.279 149.013 337.889 150.768 337.889 152.808C337.889 154.818 338.279 156.588 339.059 158.118C339.869 159.618 340.964 160.773 342.344 161.583C343.724 162.363 345.284 162.753 347.024 162.753C348.704 162.753 350.234 162.348 351.614 161.538C353.024 160.728 354.134 159.573 354.944 158.073C355.754 156.573 356.159 154.833 356.159 152.853ZM6.75 183.683V215.138H3.6V183.683H6.75ZM25.4032 190.118C28.3432 190.118 30.7432 191.033 32.6032 192.863C34.4632 194.663 35.3932 197.288 35.3932 200.738V215.138H32.2882V201.098C32.2882 198.428 31.6132 196.388 30.2632 194.978C28.9432 193.568 27.1282 192.863 24.8182 192.863C22.4482 192.863 20.5582 193.613 19.1482 195.113C17.7382 196.613 17.0332 198.818 17.0332 201.728V215.138H13.8832V190.568H17.0332V194.753C17.8132 193.253 18.9382 192.113 20.4082 191.333C21.8782 190.523 23.5432 190.118 25.4032 190.118ZM40.9198 202.853C40.9198 200.303 41.4298 198.083 42.4498 196.193C43.4698 194.273 44.8798 192.803 46.6798 191.783C48.4798 190.733 50.5348 190.208 52.8448 190.208C55.8748 190.208 58.3648 190.958 60.3148 192.458C62.2948 193.958 63.5698 195.998 64.1398 198.578H60.7648C60.3448 196.808 59.4298 195.428 58.0198 194.438C56.6398 193.418 54.9148 192.908 52.8448 192.908C51.1948 192.908 49.7098 193.283 48.3898 194.033C47.0698 194.783 46.0198 195.908 45.2398 197.408C44.4898 198.878 44.1148 200.693 44.1148 202.853C44.1148 205.013 44.4898 206.843 45.2398 208.343C46.0198 209.843 47.0698 210.968 48.3898 211.718C49.7098 212.468 51.1948 212.843 52.8448 212.843C54.9148 212.843 56.6398 212.348 58.0198 211.358C59.4298 210.338 60.3448 208.928 60.7648 207.128H64.1398C63.5698 209.648 62.2948 211.673 60.3148 213.203C58.3348 214.733 55.8448 215.498 52.8448 215.498C50.5348 215.498 48.4798 214.988 46.6798 213.968C44.8798 212.918 43.4698 211.448 42.4498 209.558C41.4298 207.638 40.9198 205.403 40.9198 202.853ZM73.1074 181.838V215.138H69.9574V181.838H73.1074ZM101.526 190.568V215.138H98.3756V210.818C97.6556 212.348 96.5456 213.518 95.0456 214.328C93.5456 215.138 91.8656 215.543 90.0056 215.543C87.0656 215.543 84.6656 214.643 82.8056 212.843C80.9456 211.013 80.0156 208.373 80.0156 204.923V190.568H83.1206V204.563C83.1206 207.233 83.7806 209.273 85.1006 210.683C86.4506 212.093 88.2806 212.798 90.5906 212.798C92.9606 212.798 94.8506 212.048 96.2606 210.548C97.6706 209.048 98.3756 206.843 98.3756 203.933V190.568H101.526ZM117.177 215.498C114.357 215.498 112.047 214.853 110.247 213.563C108.477 212.243 107.487 210.458 107.277 208.208H110.517C110.667 209.588 111.312 210.713 112.452 211.583C113.622 212.423 115.182 212.843 117.132 212.843C118.842 212.843 120.177 212.438 121.137 211.628C122.127 210.818 122.622 209.813 122.622 208.613C122.622 207.773 122.352 207.083 121.812 206.543C121.272 206.003 120.582 205.583 119.742 205.283C118.932 204.953 117.822 204.608 116.412 204.248C114.582 203.768 113.097 203.288 111.957 202.808C110.817 202.328 109.842 201.623 109.032 200.693C108.252 199.733 107.862 198.458 107.862 196.868C107.862 195.668 108.222 194.558 108.942 193.538C109.662 192.518 110.682 191.708 112.002 191.108C113.322 190.508 114.822 190.208 116.502 190.208C119.142 190.208 121.272 190.883 122.892 192.233C124.512 193.553 125.382 195.383 125.502 197.723H122.352C122.262 196.283 121.692 195.128 120.642 194.258C119.622 193.358 118.212 192.908 116.412 192.908C114.822 192.908 113.532 193.283 112.542 194.033C111.552 194.783 111.057 195.713 111.057 196.823C111.057 197.783 111.342 198.578 111.912 199.208C112.512 199.808 113.247 200.288 114.117 200.648C114.987 200.978 116.157 201.353 117.627 201.773C119.397 202.253 120.807 202.718 121.857 203.168C122.907 203.618 123.807 204.278 124.557 205.148C125.307 206.018 125.697 207.173 125.727 208.613C125.727 209.933 125.367 211.118 124.647 212.168C123.927 213.188 122.922 213.998 121.632 214.598C120.342 215.198 118.857 215.498 117.177 215.498ZM133.232 185.933C132.602 185.933 132.062 185.708 131.612 185.258C131.162 184.808 130.937 184.253 130.937 183.593C130.937 182.933 131.162 182.393 131.612 181.973C132.062 181.523 132.602 181.298 133.232 181.298C133.862 181.298 134.402 181.523 134.852 181.973C135.302 182.393 135.527 182.933 135.527 183.593C135.527 184.253 135.302 184.808 134.852 185.258C134.402 185.708 133.862 185.933 133.232 185.933ZM134.807 190.568V215.138H131.657V190.568H134.807ZM150.67 212.078L158.95 190.568H162.28L152.425 215.138H148.87L139.015 190.568H142.39L150.67 212.078ZM188.779 201.593C188.779 202.673 188.749 203.498 188.689 204.068H168.304C168.394 205.928 168.844 207.518 169.654 208.838C170.464 210.158 171.529 211.163 172.849 211.853C174.169 212.513 175.609 212.843 177.169 212.843C179.209 212.843 180.919 212.348 182.299 211.358C183.709 210.368 184.639 209.033 185.089 207.353H188.419C187.819 209.753 186.529 211.718 184.549 213.248C182.599 214.748 180.139 215.498 177.169 215.498C174.859 215.498 172.789 214.988 170.959 213.968C169.129 212.918 167.689 211.448 166.639 209.558C165.619 207.638 165.109 205.403 165.109 202.853C165.109 200.303 165.619 198.068 166.639 196.148C167.659 194.228 169.084 192.758 170.914 191.738C172.744 190.718 174.829 190.208 177.169 190.208C179.509 190.208 181.549 190.718 183.289 191.738C185.059 192.758 186.409 194.138 187.339 195.878C188.299 197.588 188.779 199.493 188.779 201.593ZM185.584 201.503C185.614 199.673 185.239 198.113 184.459 196.823C183.709 195.533 182.674 194.558 181.354 193.898C180.034 193.238 178.594 192.908 177.034 192.908C174.694 192.908 172.699 193.658 171.049 195.158C169.399 196.658 168.484 198.773 168.304 201.503H185.584Z" fill="#272B2F"/>
<path d="M231.641 192.863C230.741 190.793 229.361 189.173 227.501 188.003C225.671 186.803 223.511 186.203 221.021 186.203C218.681 186.203 216.581 186.743 214.721 187.823C212.861 188.903 211.391 190.448 210.311 192.458C209.231 194.438 208.691 196.748 208.691 199.388C208.691 202.028 209.231 204.353 210.311 206.363C211.391 208.373 212.861 209.918 214.721 210.998C216.581 212.078 218.681 212.618 221.021 212.618C223.211 212.618 225.176 212.153 226.916 211.223C228.686 210.263 230.096 208.913 231.146 207.173C232.226 205.403 232.841 203.348 232.991 201.008H219.761V198.443H236.321V200.738C236.171 203.498 235.421 206.003 234.071 208.253C232.721 210.473 230.906 212.228 228.626 213.518C226.376 214.808 223.841 215.453 221.021 215.453C218.111 215.453 215.471 214.778 213.101 213.428C210.731 212.048 208.856 210.143 207.476 207.713C206.126 205.253 205.451 202.478 205.451 199.388C205.451 196.298 206.126 193.538 207.476 191.108C208.856 188.648 210.731 186.743 213.101 185.393C215.471 184.013 218.111 183.323 221.021 183.323C224.381 183.323 227.321 184.163 229.841 185.843C232.361 187.523 234.191 189.863 235.331 192.863H231.641ZM245.241 194.933C245.931 193.403 246.981 192.218 248.391 191.378C249.831 190.538 251.586 190.118 253.656 190.118V193.403H252.801C250.521 193.403 248.691 194.018 247.311 195.248C245.931 196.478 245.241 198.533 245.241 201.413V215.138H242.091V190.568H245.241V194.933ZM269.15 215.498C266.84 215.498 264.755 214.988 262.895 213.968C261.065 212.918 259.61 211.448 258.53 209.558C257.48 207.638 256.955 205.403 256.955 202.853C256.955 200.303 257.495 198.083 258.575 196.193C259.655 194.273 261.125 192.803 262.985 191.783C264.845 190.733 266.93 190.208 269.24 190.208C271.55 190.208 273.635 190.733 275.495 191.783C277.385 192.803 278.855 194.273 279.905 196.193C280.985 198.083 281.525 200.303 281.525 202.853C281.525 205.373 280.985 207.593 279.905 209.513C278.825 211.433 277.34 212.918 275.45 213.968C273.56 214.988 271.46 215.498 269.15 215.498ZM269.15 212.753C270.77 212.753 272.27 212.393 273.65 211.673C275.03 210.923 276.14 209.813 276.98 208.343C277.85 206.843 278.285 205.013 278.285 202.853C278.285 200.693 277.865 198.878 277.025 197.408C276.185 195.908 275.075 194.798 273.695 194.078C272.315 193.328 270.815 192.953 269.195 192.953C267.575 192.953 266.075 193.328 264.695 194.078C263.315 194.798 262.205 195.908 261.365 197.408C260.555 198.878 260.15 200.693 260.15 202.853C260.15 205.013 260.555 206.843 261.365 208.343C262.205 209.813 263.3 210.923 264.65 211.673C266.03 212.393 267.53 212.753 269.15 212.753ZM319.667 190.568L311.972 215.138H308.822L302.027 194.528L295.232 215.138H292.037L284.342 190.568H287.537L293.657 211.943L300.542 190.568H303.692L310.487 211.988L316.562 190.568H319.667ZM328.056 193.223V208.478C328.056 209.978 328.341 211.013 328.911 211.583C329.481 212.153 330.486 212.438 331.926 212.438H334.806V215.138H331.431C329.211 215.138 327.561 214.628 326.481 213.608C325.401 212.558 324.861 210.848 324.861 208.478V193.223H321.441V190.568H324.861V184.403H328.056V190.568H334.806V193.223H328.056ZM351.701 190.118C353.561 190.118 355.226 190.508 356.696 191.288C358.196 192.068 359.366 193.268 360.206 194.888C361.076 196.478 361.511 198.428 361.511 200.738V215.138H358.406V201.098C358.406 198.428 357.731 196.388 356.381 194.978C355.061 193.568 353.246 192.863 350.936 192.863C348.566 192.863 346.676 193.613 345.266 195.113C343.856 196.613 343.151 198.818 343.151 201.728V215.138H340.001V181.838H343.151V194.753C343.931 193.283 345.071 192.143 346.571 191.333C348.101 190.523 349.811 190.118 351.701 190.118Z" fill="#F37321"/>
<path d="M18.56 252.158L14.6 266.138H13.04L9.52 254.218L5.92 266.138L4.4 266.158L0.52 252.158H2.02L5.22 264.418L8.8 252.158H10.36L13.84 264.418L17.06 252.158H18.56ZM30.5816 260.118C30.5816 260.598 30.5682 260.965 30.5416 261.218H21.4816C21.5216 262.045 21.7216 262.752 22.0816 263.338C22.4416 263.925 22.9149 264.372 23.5016 264.678C24.0882 264.972 24.7282 265.118 25.4216 265.118C26.3282 265.118 27.0882 264.898 27.7016 264.458C28.3282 264.018 28.7416 263.425 28.9416 262.678H30.4216C30.1549 263.745 29.5816 264.618 28.7016 265.298C27.8349 265.965 26.7416 266.298 25.4216 266.298C24.3949 266.298 23.4749 266.072 22.6616 265.618C21.8482 265.152 21.2082 264.498 20.7416 263.658C20.2882 262.805 20.0616 261.812 20.0616 260.678C20.0616 259.545 20.2882 258.552 20.7416 257.698C21.1949 256.845 21.8282 256.192 22.6416 255.738C23.4549 255.285 24.3816 255.058 25.4216 255.058C26.4616 255.058 27.3682 255.285 28.1416 255.738C28.9282 256.192 29.5282 256.805 29.9416 257.578C30.3682 258.338 30.5816 259.185 30.5816 260.118ZM29.1616 260.078C29.1749 259.265 29.0082 258.572 28.6616 257.998C28.3282 257.425 27.8682 256.992 27.2816 256.698C26.6949 256.405 26.0549 256.258 25.3616 256.258C24.3216 256.258 23.4349 256.592 22.7016 257.258C21.9682 257.925 21.5616 258.865 21.4816 260.078H29.1616ZM42.3913 266.298C41.1379 266.298 40.1113 266.012 39.3113 265.438C38.5246 264.852 38.0846 264.058 37.9913 263.058H39.4313C39.4979 263.672 39.7846 264.172 40.2913 264.558C40.8113 264.932 41.5046 265.118 42.3713 265.118C43.1313 265.118 43.7246 264.938 44.1513 264.578C44.5913 264.218 44.8113 263.772 44.8113 263.238C44.8113 262.865 44.6913 262.558 44.4513 262.318C44.2113 262.078 43.9046 261.892 43.5313 261.758C43.1713 261.612 42.6779 261.458 42.0513 261.298C41.2379 261.085 40.5779 260.872 40.0713 260.658C39.5646 260.445 39.1313 260.132 38.7713 259.718C38.4246 259.292 38.2513 258.725 38.2513 258.018C38.2513 257.485 38.4113 256.992 38.7313 256.538C39.0513 256.085 39.5046 255.725 40.0913 255.458C40.6779 255.192 41.3446 255.058 42.0913 255.058C43.2646 255.058 44.2113 255.358 44.9313 255.958C45.6513 256.545 46.0379 257.358 46.0913 258.398H44.6913C44.6513 257.758 44.3979 257.245 43.9313 256.858C43.4779 256.458 42.8513 256.258 42.0513 256.258C41.3446 256.258 40.7713 256.425 40.3313 256.758C39.8913 257.092 39.6712 257.505 39.6712 257.998C39.6712 258.425 39.7979 258.778 40.0513 259.058C40.3179 259.325 40.6446 259.538 41.0313 259.698C41.4179 259.845 41.9379 260.012 42.5913 260.198C43.3779 260.412 44.0046 260.618 44.4713 260.818C44.9379 261.018 45.3379 261.312 45.6713 261.698C46.0046 262.085 46.1779 262.598 46.1913 263.238C46.1913 263.825 46.0313 264.352 45.7113 264.818C45.3913 265.272 44.9446 265.632 44.3713 265.898C43.7979 266.165 43.1379 266.298 42.3913 266.298ZM50.6466 256.398V263.178C50.6466 263.845 50.7732 264.305 51.0266 264.558C51.2799 264.812 51.7266 264.938 52.3666 264.938H53.6466V266.138H52.1466C51.1599 266.138 50.4266 265.912 49.9466 265.458C49.4666 264.992 49.2266 264.232 49.2266 263.178V256.398H47.7066V255.218H49.2266V252.478H50.6466V255.218H53.6466V256.398H50.6466ZM57.3555 257.158C57.6621 256.478 58.1288 255.952 58.7555 255.578C59.3955 255.205 60.1755 255.018 61.0955 255.018V256.478H60.7155C59.7021 256.478 58.8888 256.752 58.2755 257.298C57.6621 257.845 57.3555 258.758 57.3555 260.038V266.138H55.9555V255.218H57.3555V257.158ZM63.9016 253.158C63.6216 253.158 63.3816 253.058 63.1816 252.858C62.9816 252.658 62.8816 252.412 62.8816 252.118C62.8816 251.825 62.9816 251.585 63.1816 251.398C63.3816 251.198 63.6216 251.098 63.9016 251.098C64.1816 251.098 64.4216 251.198 64.6216 251.398C64.8216 251.585 64.9216 251.825 64.9216 252.118C64.9216 252.412 64.8216 252.658 64.6216 252.858C64.4216 253.058 64.1816 253.158 63.9016 253.158ZM64.6016 255.218V266.138H63.2016V255.218H64.6016ZM71.6519 264.778L75.3319 255.218H76.8119L72.4319 266.138H70.8519L66.4719 255.218H67.9719L71.6519 264.778ZM88.5894 260.118C88.5894 260.598 88.576 260.965 88.5494 261.218H79.4894C79.5294 262.045 79.7294 262.752 80.0894 263.338C80.4494 263.925 80.9227 264.372 81.5094 264.678C82.096 264.972 82.736 265.118 83.4294 265.118C84.336 265.118 85.096 264.898 85.7094 264.458C86.336 264.018 86.7494 263.425 86.9494 262.678H88.4294C88.1627 263.745 87.5894 264.618 86.7094 265.298C85.8427 265.965 84.7494 266.298 83.4294 266.298C82.4027 266.298 81.4827 266.072 80.6694 265.618C79.856 265.152 79.216 264.498 78.7494 263.658C78.296 262.805 78.0694 261.812 78.0694 260.678C78.0694 259.545 78.296 258.552 78.7494 257.698C79.2027 256.845 79.836 256.192 80.6494 255.738C81.4627 255.285 82.3894 255.058 83.4294 255.058C84.4694 255.058 85.376 255.285 86.1494 255.738C86.936 256.192 87.536 256.805 87.9494 257.578C88.376 258.338 88.5894 259.185 88.5894 260.118ZM87.1694 260.078C87.1827 259.265 87.016 258.572 86.6694 257.998C86.336 257.425 85.876 256.992 85.2894 256.698C84.7027 256.405 84.0627 256.258 83.3694 256.258C82.3294 256.258 81.4427 256.592 80.7094 257.258C79.976 257.925 79.5694 258.865 79.4894 260.078H87.1694ZM100.939 256.398H98.3991V266.138H96.9991V256.398H95.4791V255.218H96.9991V254.458C96.9991 253.272 97.2991 252.398 97.8991 251.838C98.5124 251.278 99.4991 250.998 100.859 250.998V252.198C99.9524 252.198 99.3124 252.372 98.9391 252.718C98.5791 253.065 98.3991 253.645 98.3991 254.458V255.218H100.939V256.398ZM107.923 266.298C106.896 266.298 105.97 266.072 105.143 265.618C104.33 265.152 103.683 264.498 103.203 263.658C102.736 262.805 102.503 261.812 102.503 260.678C102.503 259.545 102.743 258.558 103.223 257.718C103.703 256.865 104.356 256.212 105.183 255.758C106.01 255.292 106.936 255.058 107.963 255.058C108.99 255.058 109.916 255.292 110.743 255.758C111.583 256.212 112.236 256.865 112.703 257.718C113.183 258.558 113.423 259.545 113.423 260.678C113.423 261.798 113.183 262.785 112.703 263.638C112.223 264.492 111.563 265.152 110.723 265.618C109.883 266.072 108.95 266.298 107.923 266.298ZM107.923 265.078C108.643 265.078 109.31 264.918 109.923 264.598C110.536 264.265 111.03 263.772 111.403 263.118C111.79 262.452 111.983 261.638 111.983 260.678C111.983 259.718 111.796 258.912 111.423 258.258C111.05 257.592 110.556 257.098 109.943 256.778C109.33 256.445 108.663 256.278 107.943 256.278C107.223 256.278 106.556 256.445 105.943 256.778C105.33 257.098 104.836 257.592 104.463 258.258C104.103 258.912 103.923 259.718 103.923 260.678C103.923 261.638 104.103 262.452 104.463 263.118C104.836 263.772 105.323 264.265 105.923 264.598C106.536 264.918 107.203 265.078 107.923 265.078ZM117.375 257.158C117.682 256.478 118.148 255.952 118.775 255.578C119.415 255.205 120.195 255.018 121.115 255.018V256.478H120.735C119.722 256.478 118.908 256.752 118.295 257.298C117.682 257.845 117.375 258.758 117.375 260.038V266.138H115.975V255.218H117.375V257.158ZM132.469 266.298C131.216 266.298 130.189 266.012 129.389 265.438C128.603 264.852 128.163 264.058 128.069 263.058H129.509C129.576 263.672 129.863 264.172 130.369 264.558C130.889 264.932 131.583 265.118 132.449 265.118C133.209 265.118 133.803 264.938 134.229 264.578C134.669 264.218 134.889 263.772 134.889 263.238C134.889 262.865 134.769 262.558 134.529 262.318C134.289 262.078 133.983 261.892 133.609 261.758C133.249 261.612 132.756 261.458 132.129 261.298C131.316 261.085 130.656 260.872 130.149 260.658C129.643 260.445 129.209 260.132 128.849 259.718C128.503 259.292 128.329 258.725 128.329 258.018C128.329 257.485 128.489 256.992 128.809 256.538C129.129 256.085 129.583 255.725 130.169 255.458C130.756 255.192 131.423 255.058 132.169 255.058C133.343 255.058 134.289 255.358 135.009 255.958C135.729 256.545 136.116 257.358 136.169 258.398H134.769C134.729 257.758 134.476 257.245 134.009 256.858C133.556 256.458 132.929 256.258 132.129 256.258C131.423 256.258 130.849 256.425 130.409 256.758C129.969 257.092 129.749 257.505 129.749 257.998C129.749 258.425 129.876 258.778 130.129 259.058C130.396 259.325 130.723 259.538 131.109 259.698C131.496 259.845 132.016 260.012 132.669 260.198C133.456 260.412 134.083 260.618 134.549 260.818C135.016 261.018 135.416 261.312 135.749 261.698C136.083 262.085 136.256 262.598 136.269 263.238C136.269 263.825 136.109 264.352 135.789 264.818C135.469 265.272 135.023 265.632 134.449 265.898C133.876 266.165 133.216 266.298 132.469 266.298ZM143.685 266.298C142.658 266.298 141.731 266.072 140.905 265.618C140.091 265.152 139.445 264.498 138.965 263.658C138.498 262.805 138.265 261.812 138.265 260.678C138.265 259.545 138.505 258.558 138.985 257.718C139.465 256.865 140.118 256.212 140.945 255.758C141.771 255.292 142.698 255.058 143.725 255.058C144.751 255.058 145.678 255.292 146.505 255.758C147.345 256.212 147.998 256.865 148.465 257.718C148.945 258.558 149.185 259.545 149.185 260.678C149.185 261.798 148.945 262.785 148.465 263.638C147.985 264.492 147.325 265.152 146.485 265.618C145.645 266.072 144.711 266.298 143.685 266.298ZM143.685 265.078C144.405 265.078 145.071 264.918 145.685 264.598C146.298 264.265 146.791 263.772 147.165 263.118C147.551 262.452 147.745 261.638 147.745 260.678C147.745 259.718 147.558 258.912 147.185 258.258C146.811 257.592 146.318 257.098 145.705 256.778C145.091 256.445 144.425 256.278 143.705 256.278C142.985 256.278 142.318 256.445 141.705 256.778C141.091 257.098 140.598 257.592 140.225 258.258C139.865 258.912 139.685 259.718 139.685 260.678C139.685 261.638 139.865 262.452 140.225 263.118C140.598 263.772 141.085 264.265 141.685 264.598C142.298 264.918 142.965 265.078 143.685 265.078ZM151.097 260.678C151.097 259.545 151.323 258.558 151.777 257.718C152.23 256.865 152.857 256.212 153.657 255.758C154.457 255.292 155.37 255.058 156.397 255.058C157.743 255.058 158.85 255.392 159.717 256.058C160.597 256.725 161.163 257.632 161.417 258.778H159.917C159.73 257.992 159.323 257.378 158.697 256.938C158.083 256.485 157.317 256.258 156.397 256.258C155.663 256.258 155.003 256.425 154.417 256.758C153.83 257.092 153.363 257.592 153.017 258.258C152.683 258.912 152.517 259.718 152.517 260.678C152.517 261.638 152.683 262.452 153.017 263.118C153.363 263.785 153.83 264.285 154.417 264.618C155.003 264.952 155.663 265.118 156.397 265.118C157.317 265.118 158.083 264.898 158.697 264.458C159.323 264.005 159.73 263.378 159.917 262.578H161.417C161.163 263.698 160.597 264.598 159.717 265.278C158.837 265.958 157.73 266.298 156.397 266.298C155.37 266.298 154.457 266.072 153.657 265.618C152.857 265.152 152.23 264.498 151.777 263.658C151.323 262.805 151.097 261.812 151.097 260.678ZM164.702 253.158C164.422 253.158 164.182 253.058 163.982 252.858C163.782 252.658 163.682 252.412 163.682 252.118C163.682 251.825 163.782 251.585 163.982 251.398C164.182 251.198 164.422 251.098 164.702 251.098C164.982 251.098 165.222 251.198 165.422 251.398C165.622 251.585 165.722 251.825 165.722 252.118C165.722 252.412 165.622 252.658 165.422 252.858C165.222 253.058 164.982 253.158 164.702 253.158ZM165.402 255.218V266.138H164.002V255.218H165.402ZM167.933 260.658C167.933 259.538 168.153 258.558 168.593 257.718C169.046 256.865 169.666 256.212 170.453 255.758C171.253 255.292 172.153 255.058 173.153 255.058C174.193 255.058 175.086 255.298 175.833 255.778C176.593 256.258 177.139 256.872 177.473 257.618V255.218H178.873V266.138H177.473V263.718C177.126 264.465 176.573 265.085 175.813 265.578C175.066 266.058 174.173 266.298 173.133 266.298C172.146 266.298 171.253 266.065 170.453 265.598C169.666 265.132 169.046 264.472 168.593 263.618C168.153 262.765 167.933 261.778 167.933 260.658ZM177.473 260.678C177.473 259.798 177.293 259.025 176.933 258.358C176.573 257.692 176.079 257.178 175.453 256.818C174.839 256.458 174.159 256.278 173.413 256.278C172.639 256.278 171.946 256.452 171.333 256.798C170.719 257.145 170.233 257.652 169.873 258.318C169.526 258.972 169.353 259.752 169.353 260.658C169.353 261.552 169.526 262.338 169.873 263.018C170.233 263.685 170.719 264.198 171.333 264.558C171.946 264.905 172.639 265.078 173.413 265.078C174.159 265.078 174.839 264.898 175.453 264.538C176.079 264.178 176.573 263.665 176.933 262.998C177.293 262.332 177.473 261.558 177.473 260.678ZM183.469 251.338V266.138H182.069V251.338H183.469ZM187.919 263.818L185.839 269.058H184.879L186.359 263.818H187.919ZM205.464 260.118C205.464 260.598 205.451 260.965 205.424 261.218H196.364C196.404 262.045 196.604 262.752 196.964 263.338C197.324 263.925 197.798 264.372 198.384 264.678C198.971 264.972 199.611 265.118 200.304 265.118C201.211 265.118 201.971 264.898 202.584 264.458C203.211 264.018 203.624 263.425 203.824 262.678H205.304C205.038 263.745 204.464 264.618 203.584 265.298C202.718 265.965 201.624 266.298 200.304 266.298C199.278 266.298 198.358 266.072 197.544 265.618C196.731 265.152 196.091 264.498 195.624 263.658C195.171 262.805 194.944 261.812 194.944 260.678C194.944 259.545 195.171 258.552 195.624 257.698C196.078 256.845 196.711 256.192 197.524 255.738C198.338 255.285 199.264 255.058 200.304 255.058C201.344 255.058 202.251 255.285 203.024 255.738C203.811 256.192 204.411 256.805 204.824 257.578C205.251 258.338 205.464 259.185 205.464 260.118ZM204.044 260.078C204.058 259.265 203.891 258.572 203.544 257.998C203.211 257.425 202.751 256.992 202.164 256.698C201.578 256.405 200.938 256.258 200.244 256.258C199.204 256.258 198.318 256.592 197.584 257.258C196.851 257.925 196.444 258.865 196.364 260.078H204.044ZM207.386 260.678C207.386 259.545 207.612 258.558 208.066 257.718C208.519 256.865 209.146 256.212 209.946 255.758C210.746 255.292 211.659 255.058 212.686 255.058C214.032 255.058 215.139 255.392 216.006 256.058C216.886 256.725 217.452 257.632 217.706 258.778H216.206C216.019 257.992 215.612 257.378 214.986 256.938C214.372 256.485 213.606 256.258 212.686 256.258C211.952 256.258 211.292 256.425 210.706 256.758C210.119 257.092 209.652 257.592 209.306 258.258C208.972 258.912 208.806 259.718 208.806 260.678C208.806 261.638 208.972 262.452 209.306 263.118C209.652 263.785 210.119 264.285 210.706 264.618C211.292 264.952 211.952 265.118 212.686 265.118C213.606 265.118 214.372 264.898 214.986 264.458C215.612 264.005 216.019 263.378 216.206 262.578H217.706C217.452 263.698 216.886 264.598 216.006 265.278C215.126 265.958 214.019 266.298 212.686 266.298C211.659 266.298 210.746 266.072 209.946 265.618C209.146 265.152 208.519 264.498 208.066 263.658C207.612 262.805 207.386 261.812 207.386 260.678ZM225.071 266.298C224.045 266.298 223.118 266.072 222.291 265.618C221.478 265.152 220.831 264.498 220.351 263.658C219.885 262.805 219.651 261.812 219.651 260.678C219.651 259.545 219.891 258.558 220.371 257.718C220.851 256.865 221.505 256.212 222.331 255.758C223.158 255.292 224.085 255.058 225.111 255.058C226.138 255.058 227.065 255.292 227.891 255.758C228.731 256.212 229.385 256.865 229.851 257.718C230.331 258.558 230.571 259.545 230.571 260.678C230.571 261.798 230.331 262.785 229.851 263.638C229.371 264.492 228.711 265.152 227.871 265.618C227.031 266.072 226.098 266.298 225.071 266.298ZM225.071 265.078C225.791 265.078 226.458 264.918 227.071 264.598C227.685 264.265 228.178 263.772 228.551 263.118C228.938 262.452 229.131 261.638 229.131 260.678C229.131 259.718 228.945 258.912 228.571 258.258C228.198 257.592 227.705 257.098 227.091 256.778C226.478 256.445 225.811 256.278 225.091 256.278C224.371 256.278 223.705 256.445 223.091 256.778C222.478 257.098 221.985 257.592 221.611 258.258C221.251 258.912 221.071 259.718 221.071 260.678C221.071 261.638 221.251 262.452 221.611 263.118C221.985 263.772 222.471 264.265 223.071 264.598C223.685 264.918 224.351 265.078 225.071 265.078ZM238.243 255.018C239.55 255.018 240.617 255.425 241.443 256.238C242.27 257.038 242.683 258.205 242.683 259.738V266.138H241.303V259.898C241.303 258.712 241.003 257.805 240.403 257.178C239.817 256.552 239.01 256.238 237.983 256.238C236.93 256.238 236.09 256.572 235.463 257.238C234.837 257.905 234.523 258.885 234.523 260.178V266.138H233.123V255.218H234.523V257.078C234.87 256.412 235.37 255.905 236.023 255.558C236.677 255.198 237.417 255.018 238.243 255.018ZM250.56 266.298C249.533 266.298 248.606 266.072 247.78 265.618C246.966 265.152 246.32 264.498 245.84 263.658C245.373 262.805 245.14 261.812 245.14 260.678C245.14 259.545 245.38 258.558 245.86 257.718C246.34 256.865 246.993 256.212 247.82 255.758C248.646 255.292 249.573 255.058 250.6 255.058C251.626 255.058 252.553 255.292 253.38 255.758C254.22 256.212 254.873 256.865 255.34 257.718C255.82 258.558 256.06 259.545 256.06 260.678C256.06 261.798 255.82 262.785 255.34 263.638C254.86 264.492 254.2 265.152 253.36 265.618C252.52 266.072 251.586 266.298 250.56 266.298ZM250.56 265.078C251.28 265.078 251.946 264.918 252.56 264.598C253.173 264.265 253.666 263.772 254.04 263.118C254.426 262.452 254.62 261.638 254.62 260.678C254.62 259.718 254.433 258.912 254.06 258.258C253.686 257.592 253.193 257.098 252.58 256.778C251.966 256.445 251.3 256.278 250.58 256.278C249.86 256.278 249.193 256.445 248.58 256.778C247.966 257.098 247.473 257.592 247.1 258.258C246.74 258.912 246.56 259.718 246.56 260.678C246.56 261.638 246.74 262.452 247.1 263.118C247.473 263.772 247.96 264.265 248.56 264.598C249.173 264.918 249.84 265.078 250.56 265.078ZM271.612 255.018C272.892 255.018 273.932 255.425 274.732 256.238C275.545 257.038 275.952 258.205 275.952 259.738V266.138H274.572V259.898C274.572 258.712 274.285 257.805 273.712 257.178C273.138 256.552 272.358 256.238 271.372 256.238C270.345 256.238 269.525 256.578 268.912 257.258C268.298 257.938 267.992 258.925 267.992 260.218V266.138H266.612V259.898C266.612 258.712 266.325 257.805 265.752 257.178C265.178 256.552 264.392 256.238 263.392 256.238C262.365 256.238 261.545 256.578 260.932 257.258C260.318 257.938 260.012 258.925 260.012 260.218V266.138H258.612V255.218H260.012V257.098C260.358 256.418 260.852 255.905 261.492 255.558C262.132 255.198 262.845 255.018 263.632 255.018C264.578 255.018 265.405 255.245 266.112 255.698C266.832 256.152 267.352 256.818 267.672 257.698C267.965 256.832 268.465 256.172 269.172 255.718C269.892 255.252 270.705 255.018 271.612 255.018ZM279.761 253.158C279.481 253.158 279.241 253.058 279.041 252.858C278.841 252.658 278.741 252.412 278.741 252.118C278.741 251.825 278.841 251.585 279.041 251.398C279.241 251.198 279.481 251.098 279.761 251.098C280.041 251.098 280.281 251.198 280.481 251.398C280.681 251.585 280.781 251.825 280.781 252.118C280.781 252.412 280.681 252.658 280.481 252.858C280.281 253.058 280.041 253.158 279.761 253.158ZM280.461 255.218V266.138H279.061V255.218H280.461ZM282.991 260.678C282.991 259.545 283.218 258.558 283.671 257.718C284.125 256.865 284.751 256.212 285.551 255.758C286.351 255.292 287.265 255.058 288.291 255.058C289.638 255.058 290.745 255.392 291.611 256.058C292.491 256.725 293.058 257.632 293.311 258.778H291.811C291.625 257.992 291.218 257.378 290.591 256.938C289.978 256.485 289.211 256.258 288.291 256.258C287.558 256.258 286.898 256.425 286.311 256.758C285.725 257.092 285.258 257.592 284.911 258.258C284.578 258.912 284.411 259.718 284.411 260.678C284.411 261.638 284.578 262.452 284.911 263.118C285.258 263.785 285.725 264.285 286.311 264.618C286.898 264.952 287.558 265.118 288.291 265.118C289.211 265.118 289.978 264.898 290.591 264.458C291.218 264.005 291.625 263.378 291.811 262.578H293.311C293.058 263.698 292.491 264.598 291.611 265.278C290.731 265.958 289.625 266.298 288.291 266.298C287.265 266.298 286.351 266.072 285.551 265.618C284.751 265.152 284.125 264.498 283.671 263.658C283.218 262.805 282.991 261.812 282.991 260.678ZM297.177 263.818L295.097 269.058H294.137L295.617 263.818H297.177ZM304.202 260.658C304.202 259.538 304.422 258.558 304.862 257.718C305.316 256.865 305.936 256.212 306.722 255.758C307.522 255.292 308.422 255.058 309.422 255.058C310.462 255.058 311.356 255.298 312.102 255.778C312.862 256.258 313.409 256.872 313.742 257.618V255.218H315.142V266.138H313.742V263.718C313.396 264.465 312.842 265.085 312.082 265.578C311.336 266.058 310.442 266.298 309.402 266.298C308.416 266.298 307.522 266.065 306.722 265.598C305.936 265.132 305.316 264.472 304.862 263.618C304.422 262.765 304.202 261.778 304.202 260.658ZM313.742 260.678C313.742 259.798 313.562 259.025 313.202 258.358C312.842 257.692 312.349 257.178 311.722 256.818C311.109 256.458 310.429 256.278 309.682 256.278C308.909 256.278 308.216 256.452 307.602 256.798C306.989 257.145 306.502 257.652 306.142 258.318C305.796 258.972 305.622 259.752 305.622 260.658C305.622 261.552 305.796 262.338 306.142 263.018C306.502 263.685 306.989 264.198 307.602 264.558C308.216 264.905 308.909 265.078 309.682 265.078C310.429 265.078 311.109 264.898 311.722 264.538C312.349 264.178 312.842 263.665 313.202 262.998C313.562 262.332 313.742 261.558 313.742 260.678ZM323.458 255.018C324.765 255.018 325.832 255.425 326.658 256.238C327.485 257.038 327.898 258.205 327.898 259.738V266.138H326.518V259.898C326.518 258.712 326.218 257.805 325.618 257.178C325.032 256.552 324.225 256.238 323.198 256.238C322.145 256.238 321.305 256.572 320.678 257.238C320.052 257.905 319.738 258.885 319.738 260.178V266.138H318.338V255.218H319.738V257.078C320.085 256.412 320.585 255.905 321.238 255.558C321.892 255.198 322.632 255.018 323.458 255.018ZM330.355 260.658C330.355 259.538 330.581 258.558 331.035 257.718C331.488 256.865 332.108 256.212 332.895 255.758C333.695 255.292 334.595 255.058 335.595 255.058C336.555 255.058 337.421 255.292 338.195 255.758C338.968 256.225 339.535 256.832 339.895 257.578V251.338H341.295V266.138H339.895V263.698C339.561 264.458 339.015 265.085 338.255 265.578C337.495 266.058 336.601 266.298 335.575 266.298C334.575 266.298 333.675 266.065 332.875 265.598C332.088 265.132 331.468 264.472 331.015 263.618C330.575 262.765 330.355 261.778 330.355 260.658ZM339.895 260.678C339.895 259.798 339.715 259.025 339.355 258.358C338.995 257.692 338.501 257.178 337.875 256.818C337.261 256.458 336.581 256.278 335.835 256.278C335.061 256.278 334.368 256.452 333.755 256.798C333.141 257.145 332.655 257.652 332.295 258.318C331.948 258.972 331.775 259.752 331.775 260.658C331.775 261.552 331.948 262.338 332.295 263.018C332.655 263.685 333.141 264.198 333.755 264.558C334.368 264.905 335.061 265.078 335.835 265.078C336.581 265.078 337.261 264.898 337.875 264.538C338.501 264.178 338.995 263.665 339.355 262.998C339.715 262.332 339.895 261.558 339.895 260.678ZM11.48 290.118C11.48 290.598 11.4667 290.965 11.44 291.218H2.38C2.42 292.045 2.62 292.752 2.98 293.338C3.34 293.925 3.81333 294.372 4.4 294.678C4.98667 294.972 5.62667 295.118 6.32 295.118C7.22667 295.118 7.98667 294.898 8.6 294.458C9.22667 294.018 9.64 293.425 9.84 292.678H11.32C11.0533 293.745 10.48 294.618 9.6 295.298C8.73333 295.965 7.64 296.298 6.32 296.298C5.29333 296.298 4.37333 296.072 3.56 295.618C2.74667 295.152 2.10667 294.498 1.64 293.658C1.18667 292.805 0.96 291.812 0.96 290.678C0.96 289.545 1.18667 288.552 1.64 287.698C2.09333 286.845 2.72667 286.192 3.54 285.738C4.35333 285.285 5.28 285.058 6.32 285.058C7.36 285.058 8.26667 285.285 9.04 285.738C9.82667 286.192 10.4267 286.805 10.84 287.578C11.2667 288.338 11.48 289.185 11.48 290.118ZM10.06 290.078C10.0733 289.265 9.90667 288.572 9.56 287.998C9.22667 287.425 8.76667 286.992 8.18 286.698C7.59333 286.405 6.95333 286.258 6.26 286.258C5.22 286.258 4.33333 286.592 3.6 287.258C2.86667 287.925 2.46 288.865 2.38 290.078H10.06ZM19.1614 285.018C20.4681 285.018 21.5347 285.425 22.3614 286.238C23.1881 287.038 23.6014 288.205 23.6014 289.738V296.138H22.2214V289.898C22.2214 288.712 21.9214 287.805 21.3214 287.178C20.7347 286.552 19.9281 286.238 18.9014 286.238C17.8481 286.238 17.0081 286.572 16.3814 287.238C15.7547 287.905 15.4414 288.885 15.4414 290.178V296.138H14.0414V285.218H15.4414V287.078C15.7881 286.412 16.2881 285.905 16.9414 285.558C17.5947 285.198 18.3347 285.018 19.1614 285.018ZM30.5777 294.778L34.2577 285.218H35.7377L31.3577 296.138H29.7777L25.3977 285.218H26.8977L30.5777 294.778ZM38.3352 283.158C38.0552 283.158 37.8152 283.058 37.6152 282.858C37.4152 282.658 37.3152 282.412 37.3152 282.118C37.3152 281.825 37.4152 281.585 37.6152 281.398C37.8152 281.198 38.0552 281.098 38.3352 281.098C38.6152 281.098 38.8552 281.198 39.0552 281.398C39.2552 281.585 39.3552 281.825 39.3552 282.118C39.3552 282.412 39.2552 282.658 39.0552 282.858C38.8552 283.058 38.6152 283.158 38.3352 283.158ZM39.0352 285.218V296.138H37.6352V285.218H39.0352ZM43.6055 287.158C43.9121 286.478 44.3788 285.952 45.0055 285.578C45.6455 285.205 46.4255 285.018 47.3455 285.018V286.478H46.9655C45.9521 286.478 45.1388 286.752 44.5255 287.298C43.9121 287.845 43.6055 288.758 43.6055 290.038V296.138H42.2055V285.218H43.6055V287.158ZM54.2316 296.298C53.2049 296.298 52.2782 296.072 51.4516 295.618C50.6382 295.152 49.9916 294.498 49.5116 293.658C49.0449 292.805 48.8116 291.812 48.8116 290.678C48.8116 289.545 49.0516 288.558 49.5316 287.718C50.0116 286.865 50.6649 286.212 51.4916 285.758C52.3182 285.292 53.2449 285.058 54.2716 285.058C55.2982 285.058 56.2249 285.292 57.0516 285.758C57.8916 286.212 58.5449 286.865 59.0116 287.718C59.4916 288.558 59.7316 289.545 59.7316 290.678C59.7316 291.798 59.4916 292.785 59.0116 293.638C58.5316 294.492 57.8716 295.152 57.0316 295.618C56.1916 296.072 55.2582 296.298 54.2316 296.298ZM54.2316 295.078C54.9516 295.078 55.6182 294.918 56.2316 294.598C56.8449 294.265 57.3382 293.772 57.7116 293.118C58.0982 292.452 58.2916 291.638 58.2916 290.678C58.2916 289.718 58.1049 288.912 57.7316 288.258C57.3582 287.592 56.8649 287.098 56.2516 286.778C55.6382 286.445 54.9716 286.278 54.2516 286.278C53.5316 286.278 52.8649 286.445 52.2516 286.778C51.6382 287.098 51.1449 287.592 50.7716 288.258C50.4116 288.912 50.2316 289.718 50.2316 290.678C50.2316 291.638 50.4116 292.452 50.7716 293.118C51.1449 293.772 51.6316 294.265 52.2316 294.598C52.8449 294.918 53.5116 295.078 54.2316 295.078ZM67.4036 285.018C68.7103 285.018 69.7769 285.425 70.6036 286.238C71.4303 287.038 71.8436 288.205 71.8436 289.738V296.138H70.4636V289.898C70.4636 288.712 70.1636 287.805 69.5636 287.178C68.9769 286.552 68.1703 286.238 67.1436 286.238C66.0903 286.238 65.2503 286.572 64.6236 287.238C63.9969 287.905 63.6836 288.885 63.6836 290.178V296.138H62.2836V285.218H63.6836V287.078C64.0303 286.412 64.5303 285.905 65.1836 285.558C65.8369 285.198 66.5769 285.018 67.4036 285.018ZM87.9398 285.018C89.2198 285.018 90.2598 285.425 91.0598 286.238C91.8732 287.038 92.2798 288.205 92.2798 289.738V296.138H90.8998V289.898C90.8998 288.712 90.6132 287.805 90.0398 287.178C89.4665 286.552 88.6865 286.238 87.6998 286.238C86.6732 286.238 85.8532 286.578 85.2398 287.258C84.6265 287.938 84.3198 288.925 84.3198 290.218V296.138H82.9398V289.898C82.9398 288.712 82.6532 287.805 82.0798 287.178C81.5065 286.552 80.7198 286.238 79.7198 286.238C78.6932 286.238 77.8732 286.578 77.2598 287.258C76.6465 287.938 76.3398 288.925 76.3398 290.218V296.138H74.9398V285.218H76.3398V287.098C76.6865 286.418 77.1798 285.905 77.8198 285.558C78.4598 285.198 79.1732 285.018 79.9598 285.018C80.9065 285.018 81.7332 285.245 82.4398 285.698C83.1598 286.152 83.6798 286.818 83.9998 287.698C84.2932 286.832 84.7932 286.172 85.4998 285.718C86.2198 285.252 87.0332 285.018 87.9398 285.018ZM105.269 290.118C105.269 290.598 105.256 290.965 105.229 291.218H96.1691C96.2091 292.045 96.4091 292.752 96.7691 293.338C97.1291 293.925 97.6024 294.372 98.1891 294.678C98.7757 294.972 99.4157 295.118 100.109 295.118C101.016 295.118 101.776 294.898 102.389 294.458C103.016 294.018 103.429 293.425 103.629 292.678H105.109C104.842 293.745 104.269 294.618 103.389 295.298C102.522 295.965 101.429 296.298 100.109 296.298C99.0824 296.298 98.1624 296.072 97.3491 295.618C96.5357 295.152 95.8957 294.498 95.4291 293.658C94.9757 292.805 94.7491 291.812 94.7491 290.678C94.7491 289.545 94.9757 288.552 95.4291 287.698C95.8824 286.845 96.5157 286.192 97.3291 285.738C98.1424 285.285 99.0691 285.058 100.109 285.058C101.149 285.058 102.056 285.285 102.829 285.738C103.616 286.192 104.216 286.805 104.629 287.578C105.056 288.338 105.269 289.185 105.269 290.118ZM103.849 290.078C103.862 289.265 103.696 288.572 103.349 287.998C103.016 287.425 102.556 286.992 101.969 286.698C101.382 286.405 100.742 286.258 100.049 286.258C99.0091 286.258 98.1224 286.592 97.3891 287.258C96.6557 287.925 96.2491 288.865 96.1691 290.078H103.849ZM112.95 285.018C114.257 285.018 115.324 285.425 116.15 286.238C116.977 287.038 117.39 288.205 117.39 289.738V296.138H116.01V289.898C116.01 288.712 115.71 287.805 115.11 287.178C114.524 286.552 113.717 286.238 112.69 286.238C111.637 286.238 110.797 286.572 110.17 287.238C109.544 287.905 109.23 288.885 109.23 290.178V296.138H107.83V285.218H109.23V287.078C109.577 286.412 110.077 285.905 110.73 285.558C111.384 285.198 112.124 285.018 112.95 285.018ZM122.307 286.398V293.178C122.307 293.845 122.433 294.305 122.687 294.558C122.94 294.812 123.387 294.938 124.027 294.938H125.307V296.138H123.807C122.82 296.138 122.087 295.912 121.607 295.458C121.127 294.992 120.887 294.232 120.887 293.178V286.398H119.367V285.218H120.887V282.478H122.307V285.218H125.307V286.398H122.307ZM126.976 290.658C126.976 289.538 127.196 288.558 127.636 287.718C128.089 286.865 128.709 286.212 129.496 285.758C130.296 285.292 131.196 285.058 132.196 285.058C133.236 285.058 134.129 285.298 134.876 285.778C135.636 286.258 136.182 286.872 136.516 287.618V285.218H137.916V296.138H136.516V293.718C136.169 294.465 135.616 295.085 134.856 295.578C134.109 296.058 133.216 296.298 132.176 296.298C131.189 296.298 130.296 296.065 129.496 295.598C128.709 295.132 128.089 294.472 127.636 293.618C127.196 292.765 126.976 291.778 126.976 290.658ZM136.516 290.678C136.516 289.798 136.336 289.025 135.976 288.358C135.616 287.692 135.122 287.178 134.496 286.818C133.882 286.458 133.202 286.278 132.456 286.278C131.682 286.278 130.989 286.452 130.376 286.798C129.762 287.145 129.276 287.652 128.916 288.318C128.569 288.972 128.396 289.752 128.396 290.658C128.396 291.552 128.569 292.338 128.916 293.018C129.276 293.685 129.762 294.198 130.376 294.558C130.989 294.905 131.682 295.078 132.456 295.078C133.202 295.078 133.882 294.898 134.496 294.538C135.122 294.178 135.616 293.665 135.976 292.998C136.336 292.332 136.516 291.558 136.516 290.678ZM142.512 281.338V296.138H141.112V281.338H142.512ZM152.55 287.618C152.897 286.885 153.444 286.278 154.19 285.798C154.95 285.305 155.85 285.058 156.89 285.058C157.877 285.058 158.764 285.292 159.55 285.758C160.35 286.212 160.97 286.865 161.41 287.718C161.864 288.558 162.09 289.538 162.09 290.658C162.09 291.778 161.864 292.765 161.41 293.618C160.97 294.472 160.35 295.132 159.55 295.598C158.764 296.065 157.877 296.298 156.89 296.298C155.864 296.298 154.97 296.058 154.21 295.578C153.45 295.085 152.897 294.472 152.55 293.738V301.298H151.17V285.218H152.55V287.618ZM160.67 290.658C160.67 289.752 160.49 288.972 160.13 288.318C159.784 287.652 159.304 287.145 158.69 286.798C158.077 286.452 157.384 286.278 156.61 286.278C155.864 286.278 155.177 286.458 154.55 286.818C153.937 287.178 153.45 287.692 153.09 288.358C152.73 289.025 152.55 289.798 152.55 290.678C152.55 291.558 152.73 292.332 153.09 292.998C153.45 293.665 153.937 294.178 154.55 294.538C155.177 294.898 155.864 295.078 156.61 295.078C157.384 295.078 158.077 294.905 158.69 294.558C159.304 294.198 159.784 293.685 160.13 293.018C160.49 292.338 160.67 291.552 160.67 290.658ZM166.066 287.158C166.373 286.478 166.84 285.952 167.466 285.578C168.106 285.205 168.886 285.018 169.806 285.018V286.478H169.426C168.413 286.478 167.6 286.752 166.986 287.298C166.373 287.845 166.066 288.758 166.066 290.038V296.138H164.666V285.218H166.066V287.158ZM176.693 296.298C175.666 296.298 174.739 296.072 173.913 295.618C173.099 295.152 172.453 294.498 171.973 293.658C171.506 292.805 171.273 291.812 171.273 290.678C171.273 289.545 171.513 288.558 171.993 287.718C172.473 286.865 173.126 286.212 173.953 285.758C174.779 285.292 175.706 285.058 176.733 285.058C177.759 285.058 178.686 285.292 179.513 285.758C180.353 286.212 181.006 286.865 181.473 287.718C181.953 288.558 182.193 289.545 182.193 290.678C182.193 291.798 181.953 292.785 181.473 293.638C180.993 294.492 180.333 295.152 179.493 295.618C178.653 296.072 177.719 296.298 176.693 296.298ZM176.693 295.078C177.413 295.078 178.079 294.918 178.693 294.598C179.306 294.265 179.799 293.772 180.173 293.118C180.559 292.452 180.753 291.638 180.753 290.678C180.753 289.718 180.566 288.912 180.193 288.258C179.819 287.592 179.326 287.098 178.713 286.778C178.099 286.445 177.433 286.278 176.713 286.278C175.993 286.278 175.326 286.445 174.713 286.778C174.099 287.098 173.606 287.592 173.233 288.258C172.873 288.912 172.693 289.718 172.693 290.678C172.693 291.638 172.873 292.452 173.233 293.118C173.606 293.772 174.093 294.265 174.693 294.598C175.306 294.918 175.973 295.078 176.693 295.078ZM188.505 296.298C187.251 296.298 186.225 296.012 185.425 295.438C184.638 294.852 184.198 294.058 184.105 293.058H185.545C185.611 293.672 185.898 294.172 186.405 294.558C186.925 294.932 187.618 295.118 188.485 295.118C189.245 295.118 189.838 294.938 190.265 294.578C190.705 294.218 190.925 293.772 190.925 293.238C190.925 292.865 190.805 292.558 190.565 292.318C190.325 292.078 190.018 291.892 189.645 291.758C189.285 291.612 188.791 291.458 188.165 291.298C187.351 291.085 186.691 290.872 186.185 290.658C185.678 290.445 185.245 290.132 184.885 289.718C184.538 289.292 184.365 288.725 184.365 288.018C184.365 287.485 184.525 286.992 184.845 286.538C185.165 286.085 185.618 285.725 186.205 285.458C186.791 285.192 187.458 285.058 188.205 285.058C189.378 285.058 190.325 285.358 191.045 285.958C191.765 286.545 192.151 287.358 192.205 288.398H190.805C190.765 287.758 190.511 287.245 190.045 286.858C189.591 286.458 188.965 286.258 188.165 286.258C187.458 286.258 186.885 286.425 186.445 286.758C186.005 287.092 185.785 287.505 185.785 287.998C185.785 288.425 185.911 288.778 186.165 289.058C186.431 289.325 186.758 289.538 187.145 289.698C187.531 289.845 188.051 290.012 188.705 290.198C189.491 290.412 190.118 290.618 190.585 290.818C191.051 291.018 191.451 291.312 191.785 291.698C192.118 292.085 192.291 292.598 192.305 293.238C192.305 293.825 192.145 294.352 191.825 294.818C191.505 295.272 191.058 295.632 190.485 295.898C189.911 296.165 189.251 296.298 188.505 296.298ZM196.32 287.618C196.667 286.885 197.213 286.278 197.96 285.798C198.72 285.305 199.62 285.058 200.66 285.058C201.647 285.058 202.533 285.292 203.32 285.758C204.12 286.212 204.74 286.865 205.18 287.718C205.633 288.558 205.86 289.538 205.86 290.658C205.86 291.778 205.633 292.765 205.18 293.618C204.74 294.472 204.12 295.132 203.32 295.598C202.533 296.065 201.647 296.298 200.66 296.298C199.633 296.298 198.74 296.058 197.98 295.578C197.22 295.085 196.667 294.472 196.32 293.738V301.298H194.94V285.218H196.32V287.618ZM204.44 290.658C204.44 289.752 204.26 288.972 203.9 288.318C203.553 287.652 203.073 287.145 202.46 286.798C201.847 286.452 201.153 286.278 200.38 286.278C199.633 286.278 198.947 286.458 198.32 286.818C197.707 287.178 197.22 287.692 196.86 288.358C196.5 289.025 196.32 289.798 196.32 290.678C196.32 291.558 196.5 292.332 196.86 292.998C197.22 293.665 197.707 294.178 198.32 294.538C198.947 294.898 199.633 295.078 200.38 295.078C201.153 295.078 201.847 294.905 202.46 294.558C203.073 294.198 203.553 293.685 203.9 293.018C204.26 292.338 204.44 291.552 204.44 290.658ZM218.316 290.118C218.316 290.598 218.303 290.965 218.276 291.218H209.216C209.256 292.045 209.456 292.752 209.816 293.338C210.176 293.925 210.649 294.372 211.236 294.678C211.823 294.972 212.463 295.118 213.156 295.118C214.063 295.118 214.823 294.898 215.436 294.458C216.063 294.018 216.476 293.425 216.676 292.678H218.156C217.889 293.745 217.316 294.618 216.436 295.298C215.569 295.965 214.476 296.298 213.156 296.298C212.129 296.298 211.209 296.072 210.396 295.618C209.583 295.152 208.943 294.498 208.476 293.658C208.023 292.805 207.796 291.812 207.796 290.678C207.796 289.545 208.023 288.552 208.476 287.698C208.929 286.845 209.563 286.192 210.376 285.738C211.189 285.285 212.116 285.058 213.156 285.058C214.196 285.058 215.103 285.285 215.876 285.738C216.663 286.192 217.263 286.805 217.676 287.578C218.103 288.338 218.316 289.185 218.316 290.118ZM216.896 290.078C216.909 289.265 216.743 288.572 216.396 287.998C216.063 287.425 215.603 286.992 215.016 286.698C214.429 286.405 213.789 286.258 213.096 286.258C212.056 286.258 211.169 286.592 210.436 287.258C209.703 287.925 209.296 288.865 209.216 290.078H216.896ZM222.277 287.158C222.584 286.478 223.051 285.952 223.677 285.578C224.317 285.205 225.097 285.018 226.017 285.018V286.478H225.637C224.624 286.478 223.811 286.752 223.197 287.298C222.584 287.845 222.277 288.758 222.277 290.038V296.138H220.877V285.218H222.277V287.158ZM228.823 283.158C228.543 283.158 228.303 283.058 228.103 282.858C227.903 282.658 227.803 282.412 227.803 282.118C227.803 281.825 227.903 281.585 228.103 281.398C228.303 281.198 228.543 281.098 228.823 281.098C229.103 281.098 229.343 281.198 229.543 281.398C229.743 281.585 229.843 281.825 229.843 282.118C229.843 282.412 229.743 282.658 229.543 282.858C229.343 283.058 229.103 283.158 228.823 283.158ZM229.523 285.218V296.138H228.123V285.218H229.523ZM234.514 286.398V293.178C234.514 293.845 234.64 294.305 234.894 294.558C235.147 294.812 235.594 294.938 236.234 294.938H237.514V296.138H236.014C235.027 296.138 234.294 295.912 233.814 295.458C233.334 294.992 233.094 294.232 233.094 293.178V286.398H231.574V285.218H233.094V282.478H234.514V285.218H237.514V286.398H234.514ZM248.823 285.218L242.343 301.278H240.883L243.003 296.078L238.523 285.218H240.063L243.783 294.538L247.383 285.218H248.823ZM260.509 286.398H257.969V296.138H256.569V286.398H255.049V285.218H256.569V284.458C256.569 283.272 256.869 282.398 257.469 281.838C258.083 281.278 259.069 280.998 260.429 280.998V282.198C259.523 282.198 258.883 282.372 258.509 282.718C258.149 283.065 257.969 283.645 257.969 284.458V285.218H260.509V286.398ZM267.493 296.298C266.467 296.298 265.54 296.072 264.713 295.618C263.9 295.152 263.253 294.498 262.773 293.658C262.307 292.805 262.073 291.812 262.073 290.678C262.073 289.545 262.313 288.558 262.793 287.718C263.273 286.865 263.927 286.212 264.753 285.758C265.58 285.292 266.507 285.058 267.533 285.058C268.56 285.058 269.487 285.292 270.313 285.758C271.153 286.212 271.807 286.865 272.273 287.718C272.753 288.558 272.993 289.545 272.993 290.678C272.993 291.798 272.753 292.785 272.273 293.638C271.793 294.492 271.133 295.152 270.293 295.618C269.453 296.072 268.52 296.298 267.493 296.298ZM267.493 295.078C268.213 295.078 268.88 294.918 269.493 294.598C270.107 294.265 270.6 293.772 270.973 293.118C271.36 292.452 271.553 291.638 271.553 290.678C271.553 289.718 271.367 288.912 270.993 288.258C270.62 287.592 270.127 287.098 269.513 286.778C268.9 286.445 268.233 286.278 267.513 286.278C266.793 286.278 266.127 286.445 265.513 286.778C264.9 287.098 264.407 287.592 264.033 288.258C263.673 288.912 263.493 289.718 263.493 290.678C263.493 291.638 263.673 292.452 264.033 293.118C264.407 293.772 264.893 294.265 265.493 294.598C266.107 294.918 266.773 295.078 267.493 295.078ZM276.945 287.158C277.252 286.478 277.719 285.952 278.345 285.578C278.985 285.205 279.765 285.018 280.685 285.018V286.478H280.305C279.292 286.478 278.479 286.752 277.865 287.298C277.252 287.845 276.945 288.758 276.945 290.038V296.138H275.545V285.218H276.945V287.158ZM287.64 290.658C287.64 289.538 287.86 288.558 288.3 287.718C288.753 286.865 289.373 286.212 290.16 285.758C290.96 285.292 291.86 285.058 292.86 285.058C293.9 285.058 294.793 285.298 295.54 285.778C296.3 286.258 296.846 286.872 297.18 287.618V285.218H298.58V296.138H297.18V293.718C296.833 294.465 296.28 295.085 295.52 295.578C294.773 296.058 293.88 296.298 292.84 296.298C291.853 296.298 290.96 296.065 290.16 295.598C289.373 295.132 288.753 294.472 288.3 293.618C287.86 292.765 287.64 291.778 287.64 290.658ZM297.18 290.678C297.18 289.798 297 289.025 296.64 288.358C296.28 287.692 295.786 287.178 295.16 286.818C294.546 286.458 293.866 286.278 293.12 286.278C292.346 286.278 291.653 286.452 291.04 286.798C290.426 287.145 289.94 287.652 289.58 288.318C289.233 288.972 289.06 289.752 289.06 290.658C289.06 291.552 289.233 292.338 289.58 293.018C289.94 293.685 290.426 294.198 291.04 294.558C291.653 294.905 292.346 295.078 293.12 295.078C293.866 295.078 294.546 294.898 295.16 294.538C295.786 294.178 296.28 293.665 296.64 292.998C297 292.332 297.18 291.558 297.18 290.678ZM303.176 281.338V296.138H301.776V281.338H303.176ZM307.746 281.338V296.138H306.346V281.338H307.746ZM311.156 296.238C310.863 296.238 310.616 296.138 310.416 295.938C310.23 295.738 310.136 295.492 310.136 295.198C310.136 294.905 310.23 294.665 310.416 294.478C310.616 294.278 310.863 294.178 311.156 294.178C311.436 294.178 311.67 294.278 311.856 294.478C312.056 294.665 312.156 294.905 312.156 295.198C312.156 295.492 312.056 295.738 311.856 295.938C311.67 296.138 311.436 296.238 311.156 296.238Z" fill="#272B2F"/>
<defs>
<clipPath id="clip0_128_4486">
<rect width="160" height="44.1382" fill="white"/>
</clipPath>
</defs>
</svg>
