<svg width="360" height="85" viewBox="0 0 360 85" fill="none" xmlns="http://www.w3.org/2000/svg">
<path d="M11.14 34.4532C9.07 34.4532 7.24 34.0932 5.65 33.3732C4.09 32.6532 2.86 31.6482 1.96 30.3582C1.06 29.0682 0.58 27.6282 0.52 26.0382H3.85C4 27.5682 4.675 28.9182 5.875 30.0882C7.075 31.2282 8.83 31.7982 11.14 31.7982C13.27 31.7982 14.95 31.2582 16.18 30.1782C17.44 29.0682 18.07 27.6732 18.07 25.9932C18.07 24.6432 17.725 23.5632 17.035 22.7532C16.345 21.9132 15.49 21.2982 14.47 20.9082C13.45 20.4882 12.04 20.0382 10.24 19.5582C8.14 18.9882 6.475 18.4332 5.245 17.8932C4.015 17.3532 2.965 16.5132 2.095 15.3732C1.225 14.2332 0.79 12.6882 0.79 10.7382C0.79 9.11818 1.21 7.67818 2.05 6.41818C2.89 5.12818 4.075 4.12318 5.605 3.40318C7.135 2.68318 8.89 2.32318 10.87 2.32318C13.78 2.32318 16.12 3.04318 17.89 4.48318C19.69 5.89318 20.725 7.72318 20.995 9.97318H17.575C17.365 8.68318 16.66 7.54318 15.46 6.55318C14.26 5.53318 12.64 5.02318 10.6 5.02318C8.71 5.02318 7.135 5.53318 5.875 6.55318C4.615 7.54318 3.985 8.90818 3.985 10.6482C3.985 11.9682 4.33 13.0332 5.02 13.8432C5.71 14.6532 6.565 15.2682 7.585 15.6882C8.635 16.1082 10.045 16.5582 11.815 17.0382C13.855 17.6082 15.505 18.1782 16.765 18.7482C18.025 19.2882 19.09 20.1282 19.96 21.2682C20.83 22.4082 21.265 23.9382 21.265 25.8582C21.265 27.3282 20.875 28.7232 20.095 30.0432C19.315 31.3632 18.16 32.4282 16.63 33.2382C15.1 34.0482 13.27 34.4532 11.14 34.4532ZM48.637 9.56818V34.1382H45.487V29.8182C44.767 31.3482 43.657 32.5182 42.157 33.3282C40.657 34.1382 38.977 34.5432 37.117 34.5432C34.177 34.5432 31.777 33.6432 29.917 31.8432C28.057 30.0132 27.127 27.3732 27.127 23.9232V9.56818H30.232V23.5632C30.232 26.2332 30.892 28.2732 32.212 29.6832C33.562 31.0932 35.392 31.7982 37.702 31.7982C40.072 31.7982 41.962 31.0482 43.372 29.5482C44.782 28.0482 45.487 25.8432 45.487 22.9332V9.56818H48.637ZM64.2885 34.4982C61.4685 34.4982 59.1585 33.8532 57.3585 32.5632C55.5885 31.2432 54.5985 29.4582 54.3885 27.2082H57.6285C57.7785 28.5882 58.4235 29.7132 59.5635 30.5832C60.7335 31.4232 62.2935 31.8432 64.2435 31.8432C65.9535 31.8432 67.2885 31.4382 68.2485 30.6282C69.2385 29.8182 69.7335 28.8132 69.7335 27.6132C69.7335 26.7732 69.4635 26.0832 68.9235 25.5432C68.3835 25.0032 67.6935 24.5832 66.8535 24.2832C66.0435 23.9532 64.9335 23.6082 63.5235 23.2482C61.6935 22.7682 60.2085 22.2882 59.0685 21.8082C57.9285 21.3282 56.9535 20.6232 56.1435 19.6932C55.3635 18.7332 54.9735 17.4582 54.9735 15.8682C54.9735 14.6682 55.3335 13.5582 56.0535 12.5382C56.7735 11.5182 57.7935 10.7082 59.1135 10.1082C60.4335 9.50818 61.9335 9.20818 63.6135 9.20818C66.2535 9.20818 68.3835 9.88318 70.0035 11.2332C71.6235 12.5532 72.4935 14.3832 72.6135 16.7232H69.4635C69.3735 15.2832 68.8035 14.1282 67.7535 13.2582C66.7335 12.3582 65.3235 11.9082 63.5235 11.9082C61.9335 11.9082 60.6435 12.2832 59.6535 13.0332C58.6635 13.7832 58.1685 14.7132 58.1685 15.8232C58.1685 16.7832 58.4535 17.5782 59.0235 18.2082C59.6235 18.8082 60.3585 19.2882 61.2285 19.6482C62.0985 19.9782 63.2685 20.3532 64.7385 20.7732C66.5085 21.2532 67.9185 21.7182 68.9685 22.1682C70.0185 22.6182 70.9185 23.2782 71.6685 24.1482C72.4185 25.0182 72.8085 26.1732 72.8385 27.6132C72.8385 28.9332 72.4785 30.1182 71.7585 31.1682C71.0385 32.1882 70.0335 32.9982 68.7435 33.5982C67.4535 34.1982 65.9685 34.4982 64.2885 34.4982ZM82.863 12.2232V27.4782C82.863 28.9782 83.148 30.0132 83.718 30.5832C84.288 31.1532 85.293 31.4382 86.733 31.4382H89.613V34.1382H86.238C84.018 34.1382 82.368 33.6282 81.288 32.6082C80.208 31.5582 79.668 29.8482 79.668 27.4782V12.2232H76.248V9.56818H79.668V3.40318H82.863V9.56818H89.613V12.2232H82.863ZM93.368 21.8082C93.368 19.2882 93.863 17.0832 94.853 15.1932C95.873 13.2732 97.268 11.8032 99.038 10.7832C100.838 9.73318 102.863 9.20818 105.113 9.20818C107.453 9.20818 109.463 9.74818 111.143 10.8282C112.853 11.9082 114.083 13.2882 114.833 14.9682V9.56818H117.983V34.1382H114.833V28.6932C114.053 30.3732 112.808 31.7682 111.098 32.8782C109.418 33.9582 107.408 34.4982 105.068 34.4982C102.848 34.4982 100.838 33.9732 99.038 32.9232C97.268 31.8732 95.873 30.3882 94.853 28.4682C93.863 26.5482 93.368 24.3282 93.368 21.8082ZM114.833 21.8532C114.833 19.8732 114.428 18.1332 113.618 16.6332C112.808 15.1332 111.698 13.9782 110.288 13.1682C108.908 12.3582 107.378 11.9532 105.698 11.9532C103.958 11.9532 102.398 12.3432 101.018 13.1232C99.638 13.9032 98.543 15.0432 97.733 16.5432C96.953 18.0132 96.563 19.7682 96.563 21.8082C96.563 23.8182 96.953 25.5882 97.733 27.1182C98.543 28.6182 99.638 29.7732 101.018 30.5832C102.398 31.3632 103.958 31.7532 105.698 31.7532C107.378 31.7532 108.908 31.3482 110.288 30.5382C111.698 29.7282 112.808 28.5732 113.618 27.0732C114.428 25.5732 114.833 23.8332 114.833 21.8532ZM126.749 4.93318C126.119 4.93318 125.579 4.70818 125.129 4.25818C124.679 3.80818 124.454 3.25318 124.454 2.59318C124.454 1.93318 124.679 1.39318 125.129 0.973181C125.579 0.523182 126.119 0.298182 126.749 0.298182C127.379 0.298182 127.919 0.523182 128.369 0.973181C128.819 1.39318 129.044 1.93318 129.044 2.59318C129.044 3.25318 128.819 3.80818 128.369 4.25818C127.919 4.70818 127.379 4.93318 126.749 4.93318ZM128.324 9.56818V34.1382H125.174V9.56818H128.324ZM146.977 9.11818C149.917 9.11818 152.317 10.0332 154.177 11.8632C156.037 13.6632 156.967 16.2882 156.967 19.7382V34.1382H153.862V20.0982C153.862 17.4282 153.187 15.3882 151.837 13.9782C150.517 12.5682 148.702 11.8632 146.392 11.8632C144.022 11.8632 142.132 12.6132 140.722 14.1132C139.312 15.6132 138.607 17.8182 138.607 20.7282V34.1382H135.457V9.56818H138.607V13.7532C139.387 12.2532 140.512 11.1132 141.982 10.3332C143.452 9.52318 145.117 9.11818 146.977 9.11818ZM162.494 21.8082C162.494 19.2882 162.989 17.0832 163.979 15.1932C164.999 13.2732 166.394 11.8032 168.164 10.7832C169.964 9.73318 171.989 9.20818 174.239 9.20818C176.579 9.20818 178.589 9.74818 180.269 10.8282C181.979 11.9082 183.209 13.2882 183.959 14.9682V9.56818H187.109V34.1382H183.959V28.6932C183.179 30.3732 181.934 31.7682 180.224 32.8782C178.544 33.9582 176.534 34.4982 174.194 34.4982C171.974 34.4982 169.964 33.9732 168.164 32.9232C166.394 31.8732 164.999 30.3882 163.979 28.4682C162.989 26.5482 162.494 24.3282 162.494 21.8082ZM183.959 21.8532C183.959 19.8732 183.554 18.1332 182.744 16.6332C181.934 15.1332 180.824 13.9782 179.414 13.1682C178.034 12.3582 176.504 11.9532 174.824 11.9532C173.084 11.9532 171.524 12.3432 170.144 13.1232C168.764 13.9032 167.669 15.0432 166.859 16.5432C166.079 18.0132 165.689 19.7682 165.689 21.8082C165.689 23.8182 166.079 25.5882 166.859 27.1182C167.669 28.6182 168.764 29.7732 170.144 30.5832C171.524 31.3632 173.084 31.7532 174.824 31.7532C176.504 31.7532 178.034 31.3482 179.414 30.5382C180.824 29.7282 181.934 28.5732 182.744 27.0732C183.554 25.5732 183.959 23.8332 183.959 21.8532ZM197.405 15.0132C198.215 13.3032 199.46 11.9082 201.14 10.8282C202.85 9.74818 204.86 9.20818 207.17 9.20818C209.42 9.20818 211.43 9.73318 213.2 10.7832C214.97 11.8032 216.35 13.2732 217.34 15.1932C218.36 17.0832 218.87 19.2882 218.87 21.8082C218.87 24.3282 218.36 26.5482 217.34 28.4682C216.35 30.3882 214.955 31.8732 213.155 32.9232C211.385 33.9732 209.39 34.4982 207.17 34.4982C204.83 34.4982 202.805 33.9732 201.095 32.9232C199.415 31.8432 198.185 30.4482 197.405 28.7382V34.1382H194.3V0.838183H197.405V15.0132ZM215.675 21.8082C215.675 19.7682 215.27 18.0132 214.46 16.5432C213.68 15.0432 212.6 13.9032 211.22 13.1232C209.84 12.3432 208.28 11.9532 206.54 11.9532C204.86 11.9532 203.315 12.3582 201.905 13.1682C200.525 13.9782 199.43 15.1332 198.62 16.6332C197.81 18.1332 197.405 19.8732 197.405 21.8532C197.405 23.8332 197.81 25.5732 198.62 27.0732C199.43 28.5732 200.525 29.7282 201.905 30.5382C203.315 31.3482 204.86 31.7532 206.54 31.7532C208.28 31.7532 209.84 31.3632 211.22 30.5832C212.6 29.7732 213.68 28.6182 214.46 27.1182C215.27 25.5882 215.675 23.8182 215.675 21.8082ZM227.816 0.838183V34.1382H224.666V0.838183H227.816ZM257.18 20.5932C257.18 21.6732 257.15 22.4982 257.09 23.0682H236.705C236.795 24.9282 237.245 26.5182 238.055 27.8382C238.865 29.1582 239.93 30.1632 241.25 30.8532C242.57 31.5132 244.01 31.8432 245.57 31.8432C247.61 31.8432 249.32 31.3482 250.7 30.3582C252.11 29.3682 253.04 28.0332 253.49 26.3532H256.82C256.22 28.7532 254.93 30.7182 252.95 32.2482C251 33.7482 248.54 34.4982 245.57 34.4982C243.26 34.4982 241.19 33.9882 239.36 32.9682C237.53 31.9182 236.09 30.4482 235.04 28.5582C234.02 26.6382 233.51 24.4032 233.51 21.8532C233.51 19.3032 234.02 17.0682 235.04 15.1482C236.06 13.2282 237.485 11.7582 239.315 10.7382C241.145 9.71818 243.23 9.20818 245.57 9.20818C247.91 9.20818 249.95 9.71818 251.69 10.7382C253.46 11.7582 254.81 13.1382 255.74 14.8782C256.7 16.5882 257.18 18.4932 257.18 20.5932ZM253.985 20.5032C254.015 18.6732 253.64 17.1132 252.86 15.8232C252.11 14.5332 251.075 13.5582 249.755 12.8982C248.435 12.2382 246.995 11.9082 245.435 11.9082C243.095 11.9082 241.1 12.6582 239.45 14.1582C237.8 15.6582 236.885 17.7732 236.705 20.5032H253.985ZM273.851 21.8082C273.851 19.2882 274.346 17.0832 275.336 15.1932C276.356 13.2732 277.751 11.8032 279.521 10.7832C281.321 9.73318 283.346 9.20818 285.596 9.20818C287.936 9.20818 289.946 9.74818 291.626 10.8282C293.336 11.9082 294.566 13.2882 295.316 14.9682V9.56818H298.466V34.1382H295.316V28.6932C294.536 30.3732 293.291 31.7682 291.581 32.8782C289.901 33.9582 287.891 34.4982 285.551 34.4982C283.331 34.4982 281.321 33.9732 279.521 32.9232C277.751 31.8732 276.356 30.3882 275.336 28.4682C274.346 26.5482 273.851 24.3282 273.851 21.8082ZM295.316 21.8532C295.316 19.8732 294.911 18.1332 294.101 16.6332C293.291 15.1332 292.181 13.9782 290.771 13.1682C289.391 12.3582 287.861 11.9532 286.181 11.9532C284.441 11.9532 282.881 12.3432 281.501 13.1232C280.121 13.9032 279.026 15.0432 278.216 16.5432C277.436 18.0132 277.046 19.7682 277.046 21.8082C277.046 23.8182 277.436 25.5882 278.216 27.1182C279.026 28.6182 280.121 29.7732 281.501 30.5832C282.881 31.3632 284.441 31.7532 286.181 31.7532C287.861 31.7532 289.391 31.3482 290.771 30.5382C292.181 29.7282 293.291 28.5732 294.101 27.0732C294.911 25.5732 295.316 23.8332 295.316 21.8532ZM317.178 9.11818C320.118 9.11818 322.518 10.0332 324.378 11.8632C326.238 13.6632 327.168 16.2882 327.168 19.7382V34.1382H324.063V20.0982C324.063 17.4282 323.388 15.3882 322.038 13.9782C320.718 12.5682 318.903 11.8632 316.593 11.8632C314.223 11.8632 312.333 12.6132 310.923 14.1132C309.513 15.6132 308.808 17.8182 308.808 20.7282V34.1382H305.658V9.56818H308.808V13.7532C309.588 12.2532 310.713 11.1132 312.183 10.3332C313.653 9.52318 315.318 9.11818 317.178 9.11818ZM332.694 21.8082C332.694 19.2882 333.204 17.0832 334.224 15.1932C335.244 13.2732 336.639 11.8032 338.409 10.7832C340.209 9.73318 342.234 9.20818 344.484 9.20818C346.644 9.20818 348.594 9.73318 350.334 10.7832C352.074 11.8332 353.349 13.1982 354.159 14.8782V0.838183H357.309V34.1382H354.159V28.6482C353.409 30.3582 352.179 31.7682 350.469 32.8782C348.759 33.9582 346.749 34.4982 344.439 34.4982C342.189 34.4982 340.164 33.9732 338.364 32.9232C336.594 31.8732 335.199 30.3882 334.179 28.4682C333.189 26.5482 332.694 24.3282 332.694 21.8082ZM354.159 21.8532C354.159 19.8732 353.754 18.1332 352.944 16.6332C352.134 15.1332 351.024 13.9782 349.614 13.1682C348.234 12.3582 346.704 11.9532 345.024 11.9532C343.284 11.9532 341.724 12.3432 340.344 13.1232C338.964 13.9032 337.869 15.0432 337.059 16.5432C336.279 18.0132 335.889 19.7682 335.889 21.8082C335.889 23.8182 336.279 25.5882 337.059 27.1182C337.869 28.6182 338.964 29.7732 340.344 30.5832C341.724 31.3632 343.284 31.7532 345.024 31.7532C346.704 31.7532 348.234 31.3482 349.614 30.5382C351.024 29.7282 352.134 28.5732 352.944 27.0732C353.754 25.5732 354.159 23.8332 354.159 21.8532ZM4.75 52.6832V84.1382H1.6V52.6832H4.75ZM23.4032 59.1182C26.3432 59.1182 28.7432 60.0332 30.6032 61.8632C32.4632 63.6632 33.3932 66.2882 33.3932 69.7382V84.1382H30.2882V70.0982C30.2882 67.4282 29.6132 65.3882 28.2632 63.9782C26.9432 62.5682 25.1282 61.8632 22.8182 61.8632C20.4482 61.8632 18.5582 62.6132 17.1482 64.1132C15.7382 65.6132 15.0332 67.8182 15.0332 70.7282V84.1382H11.8832V59.5682H15.0332V63.7532C15.8132 62.2532 16.9382 61.1132 18.4082 60.3332C19.8782 59.5232 21.5432 59.1182 23.4032 59.1182ZM38.9198 71.8532C38.9198 69.3032 39.4298 67.0832 40.4498 65.1932C41.4698 63.2732 42.8798 61.8032 44.6798 60.7832C46.4798 59.7332 48.5348 59.2082 50.8448 59.2082C53.8748 59.2082 56.3648 59.9582 58.3148 61.4582C60.2948 62.9582 61.5698 64.9982 62.1398 67.5782H58.7648C58.3448 65.8082 57.4298 64.4282 56.0198 63.4382C54.6398 62.4182 52.9148 61.9082 50.8448 61.9082C49.1948 61.9082 47.7098 62.2832 46.3898 63.0332C45.0698 63.7832 44.0198 64.9082 43.2398 66.4082C42.4898 67.8782 42.1148 69.6932 42.1148 71.8532C42.1148 74.0132 42.4898 75.8432 43.2398 77.3432C44.0198 78.8432 45.0698 79.9682 46.3898 80.7182C47.7098 81.4682 49.1948 81.8432 50.8448 81.8432C52.9148 81.8432 54.6398 81.3482 56.0198 80.3582C57.4298 79.3382 58.3448 77.9282 58.7648 76.1282H62.1398C61.5698 78.6482 60.2948 80.6732 58.3148 82.2032C56.3348 83.7332 53.8448 84.4982 50.8448 84.4982C48.5348 84.4982 46.4798 83.9882 44.6798 82.9682C42.8798 81.9182 41.4698 80.4482 40.4498 78.5582C39.4298 76.6382 38.9198 74.4032 38.9198 71.8532ZM71.1074 50.8382V84.1382H67.9574V50.8382H71.1074ZM99.5256 59.5682V84.1382H96.3756V79.8182C95.6556 81.3482 94.5456 82.5182 93.0456 83.3282C91.5456 84.1382 89.8656 84.5432 88.0056 84.5432C85.0656 84.5432 82.6656 83.6432 80.8056 81.8432C78.9456 80.0132 78.0156 77.3732 78.0156 73.9232V59.5682H81.1206V73.5632C81.1206 76.2332 81.7806 78.2732 83.1006 79.6832C84.4506 81.0932 86.2806 81.7982 88.5906 81.7982C90.9606 81.7982 92.8506 81.0482 94.2606 79.5482C95.6706 78.0482 96.3756 75.8432 96.3756 72.9332V59.5682H99.5256ZM115.177 84.4982C112.357 84.4982 110.047 83.8532 108.247 82.5632C106.477 81.2432 105.487 79.4582 105.277 77.2082H108.517C108.667 78.5882 109.312 79.7132 110.452 80.5832C111.622 81.4232 113.182 81.8432 115.132 81.8432C116.842 81.8432 118.177 81.4382 119.137 80.6282C120.127 79.8182 120.622 78.8132 120.622 77.6132C120.622 76.7732 120.352 76.0832 119.812 75.5432C119.272 75.0032 118.582 74.5832 117.742 74.2832C116.932 73.9532 115.822 73.6082 114.412 73.2482C112.582 72.7682 111.097 72.2882 109.957 71.8082C108.817 71.3282 107.842 70.6232 107.032 69.6932C106.252 68.7332 105.862 67.4582 105.862 65.8682C105.862 64.6682 106.222 63.5582 106.942 62.5382C107.662 61.5182 108.682 60.7082 110.002 60.1082C111.322 59.5082 112.822 59.2082 114.502 59.2082C117.142 59.2082 119.272 59.8832 120.892 61.2332C122.512 62.5532 123.382 64.3832 123.502 66.7232H120.352C120.262 65.2832 119.692 64.1282 118.642 63.2582C117.622 62.3582 116.212 61.9082 114.412 61.9082C112.822 61.9082 111.532 62.2832 110.542 63.0332C109.552 63.7832 109.057 64.7132 109.057 65.8232C109.057 66.7832 109.342 67.5782 109.912 68.2082C110.512 68.8082 111.247 69.2882 112.117 69.6482C112.987 69.9782 114.157 70.3532 115.627 70.7732C117.397 71.2532 118.807 71.7182 119.857 72.1682C120.907 72.6182 121.807 73.2782 122.557 74.1482C123.307 75.0182 123.697 76.1732 123.727 77.6132C123.727 78.9332 123.367 80.1182 122.647 81.1682C121.927 82.1882 120.922 82.9982 119.632 83.5982C118.342 84.1982 116.857 84.4982 115.177 84.4982ZM131.232 54.9332C130.602 54.9332 130.062 54.7082 129.612 54.2582C129.162 53.8082 128.937 53.2532 128.937 52.5932C128.937 51.9332 129.162 51.3932 129.612 50.9732C130.062 50.5232 130.602 50.2982 131.232 50.2982C131.862 50.2982 132.402 50.5232 132.852 50.9732C133.302 51.3932 133.527 51.9332 133.527 52.5932C133.527 53.2532 133.302 53.8082 132.852 54.2582C132.402 54.7082 131.862 54.9332 131.232 54.9332ZM132.807 59.5682V84.1382H129.657V59.5682H132.807ZM148.67 81.0782L156.95 59.5682H160.28L150.425 84.1382H146.87L137.015 59.5682H140.39L148.67 81.0782ZM186.779 70.5932C186.779 71.6732 186.749 72.4982 186.689 73.0682H166.304C166.394 74.9282 166.844 76.5182 167.654 77.8382C168.464 79.1582 169.529 80.1632 170.849 80.8532C172.169 81.5132 173.609 81.8432 175.169 81.8432C177.209 81.8432 178.919 81.3482 180.299 80.3582C181.709 79.3682 182.639 78.0332 183.089 76.3532H186.419C185.819 78.7532 184.529 80.7182 182.549 82.2482C180.599 83.7482 178.139 84.4982 175.169 84.4982C172.859 84.4982 170.789 83.9882 168.959 82.9682C167.129 81.9182 165.689 80.4482 164.639 78.5582C163.619 76.6382 163.109 74.4032 163.109 71.8532C163.109 69.3032 163.619 67.0682 164.639 65.1482C165.659 63.2282 167.084 61.7582 168.914 60.7382C170.744 59.7182 172.829 59.2082 175.169 59.2082C177.509 59.2082 179.549 59.7182 181.289 60.7382C183.059 61.7582 184.409 63.1382 185.339 64.8782C186.299 66.5882 186.779 68.4932 186.779 70.5932ZM183.584 70.5032C183.614 68.6732 183.239 67.1132 182.459 65.8232C181.709 64.5332 180.674 63.5582 179.354 62.8982C178.034 62.2382 176.594 61.9082 175.034 61.9082C172.694 61.9082 170.699 62.6582 169.049 64.1582C167.399 65.6582 166.484 67.7732 166.304 70.5032H183.584Z" fill="#272B2F"/>
<path d="M229.641 61.8632C228.741 59.7932 227.361 58.1732 225.501 57.0032C223.671 55.8032 221.511 55.2032 219.021 55.2032C216.681 55.2032 214.581 55.7432 212.721 56.8232C210.861 57.9032 209.391 59.4482 208.311 61.4582C207.231 63.4382 206.691 65.7482 206.691 68.3882C206.691 71.0282 207.231 73.3532 208.311 75.3632C209.391 77.3732 210.861 78.9182 212.721 79.9982C214.581 81.0782 216.681 81.6182 219.021 81.6182C221.211 81.6182 223.176 81.1532 224.916 80.2232C226.686 79.2632 228.096 77.9132 229.146 76.1732C230.226 74.4032 230.841 72.3482 230.991 70.0082H217.761V67.4432H234.321V69.7382C234.171 72.4982 233.421 75.0032 232.071 77.2532C230.721 79.4732 228.906 81.2282 226.626 82.5182C224.376 83.8082 221.841 84.4532 219.021 84.4532C216.111 84.4532 213.471 83.7782 211.101 82.4282C208.731 81.0482 206.856 79.1432 205.476 76.7132C204.126 74.2532 203.451 71.4782 203.451 68.3882C203.451 65.2982 204.126 62.5382 205.476 60.1082C206.856 57.6482 208.731 55.7432 211.101 54.3932C213.471 53.0132 216.111 52.3232 219.021 52.3232C222.381 52.3232 225.321 53.1632 227.841 54.8432C230.361 56.5232 232.191 58.8632 233.331 61.8632H229.641ZM243.241 63.9332C243.931 62.4032 244.981 61.2182 246.391 60.3782C247.831 59.5382 249.586 59.1182 251.656 59.1182V62.4032H250.801C248.521 62.4032 246.691 63.0182 245.311 64.2482C243.931 65.4782 243.241 67.5332 243.241 70.4132V84.1382H240.091V59.5682H243.241V63.9332ZM267.15 84.4982C264.84 84.4982 262.755 83.9882 260.895 82.9682C259.065 81.9182 257.61 80.4482 256.53 78.5582C255.48 76.6382 254.955 74.4032 254.955 71.8532C254.955 69.3032 255.495 67.0832 256.575 65.1932C257.655 63.2732 259.125 61.8032 260.985 60.7832C262.845 59.7332 264.93 59.2082 267.24 59.2082C269.55 59.2082 271.635 59.7332 273.495 60.7832C275.385 61.8032 276.855 63.2732 277.905 65.1932C278.985 67.0832 279.525 69.3032 279.525 71.8532C279.525 74.3732 278.985 76.5932 277.905 78.5132C276.825 80.4332 275.34 81.9182 273.45 82.9682C271.56 83.9882 269.46 84.4982 267.15 84.4982ZM267.15 81.7532C268.77 81.7532 270.27 81.3932 271.65 80.6732C273.03 79.9232 274.14 78.8132 274.98 77.3432C275.85 75.8432 276.285 74.0132 276.285 71.8532C276.285 69.6932 275.865 67.8782 275.025 66.4082C274.185 64.9082 273.075 63.7982 271.695 63.0782C270.315 62.3282 268.815 61.9532 267.195 61.9532C265.575 61.9532 264.075 62.3282 262.695 63.0782C261.315 63.7982 260.205 64.9082 259.365 66.4082C258.555 67.8782 258.15 69.6932 258.15 71.8532C258.15 74.0132 258.555 75.8432 259.365 77.3432C260.205 78.8132 261.3 79.9232 262.65 80.6732C264.03 81.3932 265.53 81.7532 267.15 81.7532ZM317.667 59.5682L309.972 84.1382H306.822L300.027 63.5282L293.232 84.1382H290.037L282.342 59.5682H285.537L291.657 80.9432L298.542 59.5682H301.692L308.487 80.9882L314.562 59.5682H317.667ZM326.056 62.2232V77.4782C326.056 78.9782 326.341 80.0132 326.911 80.5832C327.481 81.1532 328.486 81.4382 329.926 81.4382H332.806V84.1382H329.431C327.211 84.1382 325.561 83.6282 324.481 82.6082C323.401 81.5582 322.861 79.8482 322.861 77.4782V62.2232H319.441V59.5682H322.861V53.4032H326.056V59.5682H332.806V62.2232H326.056ZM349.701 59.1182C351.561 59.1182 353.226 59.5082 354.696 60.2882C356.196 61.0682 357.366 62.2682 358.206 63.8882C359.076 65.4782 359.511 67.4282 359.511 69.7382V84.1382H356.406V70.0982C356.406 67.4282 355.731 65.3882 354.381 63.9782C353.061 62.5682 351.246 61.8632 348.936 61.8632C346.566 61.8632 344.676 62.6132 343.266 64.1132C341.856 65.6132 341.151 67.8182 341.151 70.7282V84.1382H338.001V50.8382H341.151V63.7532C341.931 62.2832 343.071 61.1432 344.571 60.3332C346.101 59.5232 347.811 59.1182 349.701 59.1182Z" fill="#F37321"/>
</svg>
