<svg width="24" height="25" viewBox="0 0 24 25" fill="none" xmlns="http://www.w3.org/2000/svg">
<path d="M18.031 17.2721L22.3137 21.5548L20.8995 22.969L16.6168 18.6863C15.0769 19.9183 13.124 20.6553 11 20.6553C6.032 20.6553 2 16.6233 2 11.6553C2 6.68727 6.032 2.65527 11 2.65527C15.968 2.65527 20 6.68727 20 11.6553C20 13.7793 19.263 15.7322 18.031 17.2721ZM16.0247 16.5301C17.2475 15.2699 18 13.5509 18 11.6553C18 7.78777 14.8675 4.65527 11 4.65527C7.1325 4.65527 4 7.78777 4 11.6553C4 15.5228 7.1325 18.6553 11 18.6553C12.8956 18.6553 14.6146 17.9028 15.8748 16.68L16.0247 16.5301Z" fill="#272B2F"/>
</svg>
