<svg width="160" height="45" viewBox="0 0 160 45" fill="none" xmlns="http://www.w3.org/2000/svg">
<g clip-path="url(#clip0_128_4487)">
<path d="M17.9699 22.6257C17.3392 16.8875 23.3499 12.2782 31.4005 12.3483C39.4511 12.4106 46.4896 17.1133 47.1202 22.8437C47.7509 28.5897 41.7402 33.1834 33.6896 33.1211C25.639 33.0666 18.6005 28.3639 17.9699 22.6257ZM48.6229 24.4087C47.8988 17.2924 39.7937 11.4607 30.5285 11.3829C21.2555 11.305 14.3416 17.0121 15.0657 24.1284C15.7898 31.2447 23.8949 37.0763 33.1601 37.1542C42.4253 37.2242 49.3548 31.525 48.6229 24.4087Z" fill="#FBB584"/>
<path d="M34.6318 37.2945C30.0692 42.0672 22.7427 42.4643 18.2658 38.1821C13.7967 33.8998 13.8668 26.5655 18.4371 21.8006C22.9997 17.0356 30.334 16.6385 34.7953 20.913C39.2644 25.1952 39.1943 32.5295 34.624 37.2945M17.7286 21.6448C12.4264 27.1884 12.3408 35.7139 17.534 40.6891C22.7272 45.6643 31.2449 45.2049 36.5471 39.6614C41.8571 34.1178 41.9427 25.5923 36.7418 20.6171C31.5486 15.6419 23.0308 16.1013 17.7208 21.6448" fill="#F89B6C"/>
<path d="M18.2116 3.79902C27.7026 0.240867 37.0924 3.83795 39.179 11.8341C41.2656 19.8302 35.2627 29.2044 25.7717 32.7547C16.2807 36.3129 6.89094 32.7158 4.80432 24.7197C2.70992 16.7236 8.72063 7.35717 18.2116 3.79902ZM9.398 6.85109C-0.45115 14.6525 -2.95821 25.9499 3.79216 32.0852C10.5503 38.2282 24.0043 36.8813 33.8613 29.0798C43.7104 21.2861 46.2175 9.9888 39.4593 3.84573C32.7012 -2.28955 19.2394 -0.942587 9.398 6.85109Z" fill="#F37321"/>
<path d="M71.2954 13.228V30.8786H68.5314V21.5667H58.0672V30.8786H55.3032V13.228H58.0672V19.1531H68.5314V13.228H71.2954Z" fill="black"/>
<path d="M77.9289 30.8787C76.6365 30.8787 75.6165 30.5206 74.8613 29.7965C74.0905 29.0724 73.709 28.1459 73.709 27.0091V26.067C73.709 24.9147 74.0905 23.9804 74.8613 23.2563C75.6165 22.5167 76.6365 22.1507 77.9289 22.1507H85.1387V22.0807C85.1387 20.6636 84.3601 19.9629 82.8107 19.9629H74.7912V17.6116H82.764C84.4224 17.6116 85.6915 18.032 86.5635 18.8807C87.4511 19.6982 87.9027 20.8816 87.9027 22.431V27.1104C87.9027 28.3094 87.4978 29.2515 86.6803 29.9444C85.9406 30.5751 84.9051 30.8865 83.5659 30.8865H77.9212L77.9289 30.8787ZM82.982 24.4943H78.6063C77.1893 24.4943 76.4885 25.0938 76.4885 26.2928V26.7288C76.4885 27.9123 77.1971 28.504 78.6063 28.504H82.982C84.4224 28.504 85.1465 27.9123 85.1465 26.7288V26.2928C85.1465 25.0938 84.4224 24.4943 82.982 24.4943Z" fill="black"/>
<path d="M96.0002 17.6038H98.7175C100.438 17.6038 101.793 18.1021 102.774 19.0987C103.755 20.0952 104.245 21.4889 104.245 23.2719V30.8787H101.481V23.412C101.481 22.3064 101.263 21.4967 100.835 20.9906C100.298 20.3288 99.5194 20.0018 98.5073 20.0018H96.1559C95.1749 20.0018 94.4041 20.3288 93.8513 20.9906C93.4542 21.4967 93.2518 22.3064 93.2518 23.412V30.8787H90.4878V23.2719C90.4878 21.4889 90.9783 20.103 91.9593 19.0987C92.9403 18.1021 94.2873 17.6038 95.9924 17.6038H96.0002Z" fill="black"/>
<path d="M116.991 29.1035C116.01 30.287 114.788 30.8787 113.324 30.8787H111.619C110.085 30.8787 108.863 30.396 107.952 29.4306C107.087 28.5274 106.659 27.2427 106.659 25.5843V17.6116H109.4V25.6077C109.4 26.5731 109.61 27.2816 110.023 27.7254C110.498 28.2315 111.12 28.4885 111.891 28.4885H113.09C113.877 28.4885 114.507 28.2315 114.982 27.7254C115.411 27.2816 115.629 26.5731 115.629 25.6077V17.6116H118.346V25.6077C118.346 26.5731 118.556 27.2816 118.969 27.7254C119.444 28.2315 120.066 28.4885 120.837 28.4885H122.036C122.823 28.4885 123.453 28.2315 123.928 27.7254C124.356 27.2816 124.575 26.5731 124.575 25.6077V17.6116H127.315V25.5843C127.315 27.2427 126.871 28.5274 125.976 29.4306C125.073 30.396 123.843 30.8787 122.285 30.8787H120.604C119.171 30.8787 117.972 30.287 116.983 29.1035H116.991Z" fill="black"/>
<path d="M135.436 20.0018C134.455 20.0018 133.684 20.3288 133.131 20.9906C132.734 21.4967 132.532 22.3065 132.532 23.4121V30.8787H129.768V13.1814H132.532V18.4135C133.334 17.8763 134.244 17.6038 135.272 17.6038H137.989C139.71 17.6038 141.065 18.1021 142.046 19.0987C143.027 20.0953 143.517 21.4889 143.517 23.2719V30.8787H140.753V23.4121C140.753 22.3065 140.535 21.4967 140.107 20.9906C139.57 20.3288 138.791 20.0018 137.779 20.0018H135.428H135.436Z" fill="black"/>
<path d="M150.019 30.8787C148.726 30.8787 147.706 30.5206 146.951 29.7965C146.18 29.0724 145.799 28.1459 145.799 27.0091V26.067C145.799 24.9147 146.18 23.9804 146.951 23.2563C147.706 22.5167 148.726 22.1507 150.019 22.1507H157.229V22.0807C157.229 20.6636 156.45 19.9629 154.901 19.9629H146.881V17.6116H154.854C156.512 17.6116 157.781 18.032 158.653 18.8807C159.541 19.6982 159.993 20.8816 159.993 22.431V27.1104C159.993 28.3094 159.588 29.2515 158.77 29.9444C158.03 30.5751 156.995 30.8865 155.656 30.8865H150.011L150.019 30.8787ZM155.064 24.4943H150.688C149.271 24.4943 148.571 25.0938 148.571 26.2928V26.7288C148.571 27.9123 149.279 28.504 150.688 28.504H155.064C156.504 28.504 157.229 27.9123 157.229 26.7288V26.2928C157.229 25.0938 156.504 24.4943 155.064 24.4943Z" fill="black"/>
</g>
<defs>
<clipPath id="clip0_128_4487">
<rect width="160" height="44.1382" fill="white"/>
</clipPath>
</defs>
</svg>
